<svg xmlns="http://www.w3.org/2000/svg" id="Layer_1" data-name="Layer 1" viewBox="0 0 116.63 150.12"><defs><style>.cls-1{fill:#0090bc;stroke-width:0}</style></defs><path d="M72.03 77.83H44.59L23.57 60.19 18.8 33.16 32.52 9.39 58.31 0 84.1 9.39l13.72 23.77-4.77 27.03-21.02 17.64zM46.8 71.76h23.03l17.64-14.8 4-22.68-11.51-19.94-21.64-7.88-21.64 7.88-11.51 19.94 4 22.68 17.64 14.8h-.01z" class="cls-1"/><path d="M58.31 57.98c-10.45 0-18.96-8.5-18.96-18.96s8.5-18.96 18.96-18.96 18.96 8.5 18.96 18.96-8.51 18.96-18.96 18.96zm0-31.86c-7.11 0-12.89 5.78-12.89 12.89S51.2 51.9 58.31 51.9 71.2 46.12 71.2 39.01s-5.78-12.89-12.89-12.89zM0 90.69c27.22 7.11 50.25 31.51 54.73 59.42-3.57-6.1-6.69-12.14-10.7-17.63C32.51 115.56 17.1 101.98 0 90.69zm2.45-22.56c27.22 7.11 50.25 31.51 54.73 59.42-3.57-6.1-6.69-12.14-10.7-17.63C34.96 93 19.55 79.42 2.45 68.13zM116.63 90.7c-23.93 15.63-41.42 34.12-54.73 59.42 4.48-27.91 27.51-52.31 54.73-59.42zm-2.45-22.57c-23.93 15.63-41.42 34.12-54.73 59.42 4.48-27.91 27.51-52.31 54.73-59.42z" class="cls-1"/></svg>