<svg xmlns="http://www.w3.org/2000/svg" data-name="Layer 1" viewBox="0 0 568.9 83.39"><path fill="#0198ca" fill-rule="evenodd" d="M544.23 18.4c2.26 2.68 5.56 3.63 7.67 2.09 1.32-.97 1.81-2.74 1.52-4.66 1.25.19 2.47.57 3.92 1.16.72.24 1.57-2.76.46-2.87-11.98-1.72-18.62 7.94-18.46 7.79 1.85-1.39 3.38-2.57 4.89-3.51m6.83 1.1c-1.58 1.28-4.22.48-6.07-1.56 2.5-1.55 4.62-2.28 6.9-2.25.47 1.47.06 3.1-.83 3.81m-59.66 4.26c2.06-6.76 5.65-12.88 10.32-17.97 20.64-8.71 47.24-8.64 67.18 7.41-12.51-6.38-49.51-13.17-77.5 10.56m-1.2 22.13c-.91-4.88-1.06-9.91-.37-14.85 14.6-14.84 36.46-24.61 59.4-19.81-12.56.03-42.66 8.63-59.02 34.66m7.8 18.28c-2.42-3.4-4.43-7.15-5.87-11.14 8.69-18.39 25.44-34.42 47.95-37.9-11.21 4.22-34.56 21.41-42.09 49.04m14.18 13.09c-3.46-2.04-6.59-4.54-9.39-7.37 3-19.45 14.88-39.77 33.88-50.32-1.4 2.06-2.04 4.46-1.93 7.03-11.07 11.23-22.07 28.66-22.56 50.66m17.57 6.13c-3.75-.52-7.37-1.45-10.8-2.77.13-17.6 5.83-38.5 16.19-51.32.57 2.25 1.67 4.55 3.43 6.86 8.2-9.65 17.66-16.47 29.4-19.49-16.02 6.08-40.94 25.47-38.23 66.71M85.25 68.09h18.22c1.72 0 3.69-1.36 4.42-3.19l.75-1.79h-9.58l4.52-10.62h25.36v.03L118.8 76.1c-1.97 4.34-5.05 7.44-10.81 7.13l-45.67-.06 23.26-54.32c1.98-4.38 5.04-7.28 10.81-7.16h45.74l-10.91 25.45h-15.75l4.45-10.46H99.95c-.7 0-1.54.62-1.8 1.35l-12.9 30.04zM89.28.12 43.47.2c-5.83-.16-8.84 2.83-10.88 7.23-.78 1.65-2.03 4.53-3.57 8.15L0 83.25h46.06c5.82.03 8.86-2.86 10.86-7.23.75-1.65 2.05-4.55 3.59-8.14l-37.56-.11 7.73-17.99h21.2l6.59-15.38H37.31l7.49-17.47c.32-.73 1.15-1.35 1.87-1.35h36L89.28.12zm338.98 47.24h18.15c1.71 0 3.63-1.47 4.42-3.22l3.24-7.44h-19.99c-.71 0-1.53.62-1.84 1.35l-3.99 9.31zm1.09 15.65h-8.08c-2.57 5.9-4.68 10.72-5.78 13.11-1.97 4.34-4.98 7.19-10.81 7.12h-8.36l8.59-20.15c5.95-13.98 12.48-29.28 14.7-34.21 1.95-4.34 5.05-7.41 10.83-7.14h45.7c-5.92 13.95-12.49 29.27-14.75 34.21-1.97 4.32-5.03 7.39-10.8 7.13l14.23 20.16h-21.87l-13.61-20.23zM195.59 21.74h8.4c-5.93 13.95-12.44 29.27-14.68 34.21-1.97 4.32-5.02 7.39-10.78 7.13h-10.72c-2.54 5.91-4.64 10.65-5.7 13.04-1.95 4.34-5.03 7.44-10.8 7.13l-8.41.03 8.65-20.19h-18.72c5.96-13.99 12.46-29.29 14.68-34.21 2-4.34 5.04-7.41 10.8-7.14l8.37-.03-10.84 25.63 18.16.02c1.72 0 3.71-1.44 4.41-3.22 2.08-5.12 4.11-10.22 6.43-15.26 1.95-4.34 4.95-7.28 10.75-7.14m176.07 61.5h8.46c5.79.32 8.83-2.78 10.79-7.12l23.35-54.4h-8.45c-5.79-.25-8.84 2.82-10.8 7.15-2.27 4.92-8.8 20.23-14.73 34.21l-8.62 20.15zM217.7 47.36h17.89c1.76 0 3.65-1.47 4.42-3.22l3.23-7.44H223.5c-.7 0-1.54.63-1.85 1.35l-3.95 9.32zm-6.66 15.65 29.39.07c5.94 0 8.8-2.82 10.77-7.13 2.24-4.94 8.75-20.26 14.66-34.23h-45.75c-5.8-.16-8.8 2.82-10.78 7.15l-23.2 54.37h8.42c5.86.1 8.82-2.79 10.8-7.13 1.09-2.38 3.15-7.21 5.69-13.11m55.53 20.22 8.48.03c5.74.3 8.78-2.79 10.75-7.13 2.17-4.8 8.37-19.45 14.15-33.12.17-.37 2.51-5.92 2.69-6.29h18.62l6.32-14.95-45.56-.03c-5.8-.25-8.84 2.82-10.8 7.16l-3.32 7.88 18.53-.06-19.86 46.52zm74.8-35.86h17.83c1.71 0 3.68-1.47 4.42-3.22l3.21-7.44H347.2c-.71 0-1.53.62-1.83 1.35l-4 9.31zm14.2 15.72h-20.86c-2.56 5.88-4.64 10.65-5.72 13.04-1.99 4.34-5.02 7.44-11 7.13h-8.17l8.56-20.16c5.95-13.99 12.48-29.29 14.74-34.21 1.95-4.34 4.71-7.17 10.79-7.14h45.59l-23.27 54.38c-1.95 4.34-5.03 7.44-10.81 7.13h-8.18l8.34-20.16z"/></svg>