<svg xmlns="http://www.w3.org/2000/svg" id="Layer_1" data-name="Layer 1" viewBox="0 0 492.24 122.87"><defs><style>.cls-1{fill:#0198ca;fill-rule:evenodd;stroke-width:0}</style></defs><path d="M456.92 10.26a14.904 14.904 0 0 0-3.09 9.07v28.5c-.1 2.19-1 4.19-2.29 5.88-.7.7-5.08 4.68-5.48 5.08l2.49.1c.8-.7 9.27-8.27 10.06-9.27 2.49-2.69 3.89-6.18 3.89-9.87V12.36c-.1-2.79 1-5.48 2.89-7.47 1-1.1 4.28-3.89 4.88-4.58l-2.59-.1c-.6.8-9.87 9.17-10.76 10.06zM436.09 113.9l10.36 8.97h6.88c6.58 0 13.05-2.59 17.74-7.27 4.28-4.28 5.78-9.97 5.78-15.35V85.4c-.1-3.39-1.49-6.58-3.99-8.77-.4-.4-3.49-3.39-3.49-3.39V84.6s3.39 3.39 3.99 4.09c3.09 3.29 3.09 9.27-6.68 18.63-1.69 1.59-6.58 6.28-13.25 6.28l-17.34.3z" class="cls-1"/><path d="M464.79 53.11c-1.1 1.2-2.19 4.19-2.19 6.88v5.58h5.68c2.19 0 5.08-1.99 5.68-3.09V56.9c.8 1.2 1.89 2.29 3.09 3.19.6-.7 5.78-6.98 10.06-7.08 7.17-.1 5.58 9.07 2.69 11.96-1 1-5.18 4.88-6.58 6.08-3.39 3.29-9.27 1.69-9.27-6.68 0 0-6.28 5.98-7.17 6.78-1 .8-4.19 4.28-4.19 4.28v14.85c0 7.08-2.29 9.47-4.28 11.56-.7.8-8.67 8.07-9.87 8.97l-2.59.1s4.68-4.28 5.58-5.18c1-1.1 2.29-3.39 2.29-7.08 0-1-.1-23.22-.1-23.22h-36.27c-12.66 0-15.35-13.95-15.35-17.74V43.54c0-2.29-1.49-6.18-3.79-7.37h3.59c.4.1 2.69 1 2.69 9.67 0 0-.1 9.97-.1 10.56 0 4.38 3.49 9.37 8.47 9.37l41.06-.1c0-1.1 1.1-5.28 3.09-7.47 1.1-1.3 9.97-9.27 10.96-10.06h2.59c-.4.4-4.68 4.19-5.58 5.18l-.2-.2zm13.45 8.47c1 1.4 2.19 2.79 3.49 4.09 4.48 3.59 6.58-.3 3.59-4.28-1.2-1.69-5.68-1.3-7.08.2z" class="cls-1"/><path d="M434.3 87.99c0 1.99-6.28 7.27-6.68 7.57-.4-2.19-2.09-4.48-6.78-9.27l6.88-6.88c4.68 4.68 6.58 5.78 6.58 8.57zm11.96-79.52c1.4 1.4 4.38 5.08 2.59 6.98-1.59 1.59-3.99 4.09-3.99 4.09-.1-.9-2.49-3.09-2.49-3.09v7.47c-.1 3.09-1.2 3.89-1.2 3.89s5.58 5.48 5.58 12.66v7.27c.1 1.3-.4 2.79-1.4 3.69-.5.6-5.68 5.78-6.48 6.48-1.2 1-2.69 1.59-4.28 1.59h-19.23c-3.09 0-6.18-2.39-6.18-4.78 0-.6.1-7.17.1-7.17 1 1.1 1.99 2.49 4.38 2.49 1.89 0 3.89-1.49 4.38-2.09s14.55-15.15 14.55-15.15-6.58-6.08-10.86-8.97c-2.09-1.4-4.88.4-5.38 2.19-1.3 5.78 0 14.55 0 14.55l-5.28-5.28c-2.19-2.19-2.09-6.98.5-9.57.4-.4 4.28-4.78 9.27-4.78h7.67c5.08 0 10.76 5.08 10.76 5.08.4-.5.7-1.1.8-1.79 0-2.69-.1-9.77-.1-9.77-3.89-3.89-4.38-7.87-2.49-9.77 3.49-3.49 4.78-4.68 4.78-4.68s-.1 4.48 3.99 8.47zm-24.12 38.76c-1.89 1.99-2.19 2.49-3.99 3.59h21.72c5.88 0 4.68-3.69 3.69-5.48-2.19-3.79-8.97-10.76-8.97-10.76s-12.06 12.26-12.46 12.66z" class="cls-1"/><path d="M397.33 66.97h-3.59s3.79 2.09 3.79 7.47v17.34c0 11.26 9.27 21.62 20.63 21.62h9.47c5.68 0 7.67-1.3 11.06-4.38 1.3-1.1 2.89-2.99 3.49-3.69 1.89-2.19 4.09-3.99 4.09-9.87v-5.68c0-4.88-2.79-6.88-4.28-8.37-.9-.9-3.29-3.19-3.29-3.19v11.56s2.39 2.49 3.39 3.39c4.88 3.89 1 10.56-3.59 10.56h-20.73c-7.57.1-17.94-6.58-17.94-18.04v-9.37c.2-9.37-2.49-9.37-2.49-9.37z" class="cls-1"/><path d="M420.15 88.09c0 1.99-6.28 7.27-6.68 7.57-.4-2.19-2.09-4.48-6.78-9.27l6.88-6.88c4.58 4.58 6.58 5.68 6.58 8.57zM43.53 90.7H26.89c-5.2 0-4.75-4.31-5.35-8.02V58.91s3.71-.15 7.73-.15c4.61 0 10.25-.59 15.9 2.38-2.82-6.09-9.06-9.81-15.9-9.66h-7.58V43.9s0-6.69-1.63-8.47h10.99c9.36 0 16.79-.15 24.37 4.9 0 0-1.49-12.48-19.76-12.48H0S6.24 33.2 5.94 43.9l.15 43.23c0 10.85 4.31 11.14 4.31 11.14h35.21c8.02 0 10.7-5.65 10.7-8.77l.15-4.16c0 .15-2.53 5.35-12.93 5.35zm93.6-3.56V56.83c0-11.74-9.51-14.86-16.79-14.86-9.36 0-12.33 7.87-13.52 10.7-2.08-7.28-9.51-10.7-15.45-10.7-11.44 0-14.26 10.85-14.26 10.85s-.15-10.55-9.36-10.55h-8.91s5.2 2.08 5.2 11.14v33.58c0 11.14 4.46 11.29 4.46 11.29h14.86c-3.57-2.67-5.65-6.83-5.65-11.44V56.98c.15-1.34 2.38-5.79 8.77-5.79 3.71 0 7.58 3.71 7.58 8.02v27.78c0 11.14 4.46 11.29 4.46 11.29h14.86c-3.57-2.82-5.65-6.83-5.65-11.44V56.98c1.49-4.31 6.09-6.83 10.55-5.35 3.27 1.04 5.65 4.16 5.79 7.58v27.63c.15 11.29 4.46 11.14 4.46 11.14h14.86c-4.01-2.38-6.09-6.39-6.24-10.85zm26 0c0 4.46 2.08 8.62 5.65 11.29h-14.86s-4.61.15-4.61-11.14V53.42c0-8.91-5.05-11.14-5.05-11.14h8.91c3.27 0 9.81 0 9.81 12.48v32.09l.15.3zm45.61-40.56s-1.49-4.01-7.58-4.01c-9.36 0-11.59 11.14-11.59 11.14-.74-8.77-3.12-11.29-9.66-11.29H171s5.2 2.08 5.2 11.14v33.58c0 11.14 4.46 11.29 4.46 11.29h14.86a14.052 14.052 0 0 1-5.65-11.29V59.51c.3-2.38 1.63-4.46 3.71-5.65 5.05-3.27 11.59-2.38 15.45 2.23l-.3-9.51zm69.09 1.93c3.12 0 6.09.74 8.77 2.23v-8.47h-12.48V29.34c-2.67 4.16-6.09 8.02-9.95 11.14-4.16 3.42-13.07 7.73-13.07 7.73l9.36.15v39.07c0 10.85 4.61 10.85 4.61 10.85h14.71c-3.57-2.53-5.65-6.69-5.79-10.99V48.36h3.86v.15zm45.02 16.94c-8.32 8.62-14.86 7.28-20.06 13.82 0 0 .89 8.62 7.43 11.59 2.23 1.04 11.44 4.31 17.23-5.94v9.06s-3.71 4.46-15.9 4.46c-14.56 0-24.51-11.44-24.51-26.89s8.02-29.42 23.47-29.57c15.15-.15 23.33 12.03 12.33 23.47zm-9.06-3.57c2.38-4.61 4.46-16.05-4.01-15.45-9.81.74-7.87 26.59-7.87 26.59 3.27-3.42 8.02-4.16 11.89-11.14zM156.15 37.81c3.71-.15 6.69-3.27 6.69-6.83-.15-3.71-3.27-6.69-6.83-6.69-3.71.15-6.69 3.12-6.69 6.83s3.12 6.69 6.83 6.69zm68.05 54.23c-3.27 0-5.79-3.57-5.79-7.13 0-13.97 11.44-15.9 14.56-19.61v23.62c-1.49 1.04-2.82 3.12-8.77 3.12zm8.76-32.24c-3.42 5.94-30.31 7.28-26.15 28.08 1.63 8.17 7.13 10.7 13.97 10.7s10.7-3.42 12.48-6.83c1.04 6.24 4.16 6.69 4.16 6.69h14.86c-3.57-2.67-5.79-6.83-5.79-11.14V55.65c0-7.58-8.32-13.37-17.23-13.37-5.05-.15-9.81 1.34-13.82 4.16v9.81s3.12-7.73 10.7-7.73 8.02 3.71 8.02 5.65c.3 1.78-.15 3.86-1.19 5.65zm122.72 23.33c.15 4.01-3.42 9.21-10.99 9.21s-10.85-7.87-10.85-7.87v9.95c4.16 2.67 9.06 4.01 14.11 4.01 10.1 0 20.35-7.58 20.21-18.42-.15-3.57-1.34-6.98-3.42-9.81-3.42-4.61-9.66-7.73-14.56-10.7-2.82-1.63-4.16-4.75-4.16-5.79-.15-1.93.89-5.65 8.32-5.65s10.55 7.73 10.55 7.73v-9.36c-4.16-2.82-9.06-4.46-14.26-4.46-8.91 0-16.94 5.94-16.79 13.37.15 6.69 2.82 10.85 8.32 15.01 2.38 1.78 5.05 3.27 7.58 4.75 4.31 2.38 5.79 5.2 5.94 8.02z" class="cls-1"/></svg>