<svg xmlns="http://www.w3.org/2000/svg" xml:space="preserve" id="Layer_1" x="0" y="0" version="1.1" viewBox="0 0 463.7 92.4"><style>.st0{fill-rule:evenodd;clip-rule:evenodd;fill:#0098ca}</style><path d="M448 70.9h-47.6c-1 0-1.6 3.1.3 3.4h47.1c1.5-.3 1.2-3.1.2-3.4zm-21.6-50.2c.3-1 .3-2.3-.5-4.2-.5-1.3-1-2.9-1.6-4.2 0-.3-.3-.3-.3-.3-.3 0-.3.3-.3.3-.5 1.6-1 2.9-1.6 4.2-.8 1.8-.8 3.1-.5 4.2.3.8-.3 1.6-1.6 1.8 1.3 1.3 2.6 2.9 3.9 4.2 1.3-1.6 2.6-2.9 3.9-4.2-1.1-.3-1.7-1-1.4-1.8z" class="st0"/><path d="M462.8 44.1c.8-1.3 1-2.3.3-3.4-.5-1-.8-2.1-1.3-3.1 0-1-.5-1.8-1.8-2.6-1-.5-1.6-1.3-1.6-2.3-.8.3-1.8-.3-2.9-1.3-1.3-1-2.3-1.3-3.4-1-.3-.3-1.3-.8-3.1-1-1.3-.3-2.3-.8-2.9-2.1-.5 0-1.6-1-2.9-3.1h-1.6c-.8-.3-1.3-.8-1.6-1-6.2-3.4-10.7-1.3-12.2 1.3-.8 1-3.1 4.2-4.4 4.4-1-.3-3.4-3.6-4.4-4.4-1.6-2.6-6.2-4.7-12.5-1.3-.3.3-.8.8-1.6 1h-1.6c-1.3 2.1-2.3 3.1-2.9 3.1-.5 1.3-1.6 1.8-2.9 2.1-1.8.3-2.9.8-3.1 1-1-.3-2.1 0-3.4 1-1 1-2.1 1.6-2.9 1.3 0 1-.5 1.8-1.6 2.3-1.3.8-1.8 1.6-1.8 2.6-.5 1-.8 2.1-1.3 3.1-.8 1-.5 2.1.3 3.4-.8 1.3-1 2.3-.5 3.1.8.5 1.3 1.6 1 3.4 0 1.6.5 2.3 1.8 2.6.3 1.3.8 2.3 1.6 2.6 2.1-.5 3.4.3 3.9 2.3 3.1.8 5.2 4.2 6.5 9.6.3.3.8.5 1 .8h48.4c.3-.3.8-.5 1-.8 1.3-5.5 3.6-8.8 6.5-9.6.5-2.1 1.8-2.9 3.9-2.3.8-.3 1.3-1.3 1.6-2.6 1.3-.3 1.8-1 1.8-2.6-.3-1.8.3-2.9 1-3.4.7-.8.4-1.8-.4-3.1zm-64 15.9c-.3-.3 0-1.3.3-2.9.3-.8.3-1.3-.5-1.3-.8-.3-1.6-.3-2.3-.5-.8-.8-.5-2.1.5-3.9-1.8-1.3-2.9-3.1-3.6-5.2-.8-2.3-.5-4.9 1.3-8.3 1-1.3 1.8-2.1 2.6-2.3 3.6-1.8 3.9 4.4 4.7 6.8 1 2.9 1.6 4.9 1.3 7.3 0 .5.5.8 1.3 1 .3.5.8.8 1.6 1 1 .3 1 1.8 0 4.2.8.5 1.8.8 2.9 1 .3.3 0 .8-.3 1.6-.5.3-2.6.3-6-.3-1.7 1.5-3 2-3.8 1.8zm7.3 7.2c-1.8-.3-3.1-1-3.4-2.1.8-1.3 2.3-2.1 4.2-2.1 2.3.5 3.1 1.8 3.1 2.1s-.5 1.1-3.9 2.1zm9.1-1c-.8 0-1-.8-1.3-1.6 0-.8.3-1.8 1.3-1.8.8 0 1.3.8 1.3 1.3.3 1.1-.3 2.1-1.3 2.1zm4.7-8.8c-2.3-.8-3.6-.3-4.2 1-1.6 1-2.9.8-3.9-.5-.3-.3-.3-1 0-1.8.5-.5.8-1 1.3-1.6l-1-1c-1.8 0-1-2.1-.8-3.1.5-.8 1-1.6 1.6-2.6-2.6-3.4-4.2-5.7-4.2-7.5-.8-4.2-.5-7.3 1.3-9.6 1.3-2.6 2.9-3.6 4.4-3.6 1.3 0 2.9 1 4.2 2.3 3.1 4.7 3.6 10.4 1.3 16.1-.3.8 0 1.3 1.3 2.1 1 1.3 3.1 1.3 1.8 3.6l-1.6 1.6c-.3.3 0 .8.5 1.3.5.3.8.5 1.3.8-.7 2.2-1.5 3.2-3.3 2.5zm4.1 8.8c-1 0-3.4-.8-2.9-2.1.8-1 2.1-1.6 2.9-1.6s2.1.3 2.9 1.6c.8 1.1-1.6 2.1-2.9 2.1zm10.5-1.5c0 .8-.5 1.6-1.3 1.6-1.3 0-1.6-1-1.3-1.8s.5-1.3 1.3-1.3c1-.4 1.3.7 1.3 1.5zm1.8-11.2-1 1c.5.5.8 1 1.3 1.6.3.8.3 1.6 0 1.8-1 1.3-2.3 1.6-3.6.5-.5-1.3-2.1-1.8-4.2-1-1.8.8-2.9-.3-3.1-2.6.5-.3.8-.5 1.3-.8.5-.5.8-1 .5-1.3l-1.6-1.6c-1.3-2.1.8-2.1 1.8-3.6 1.3-.8 1.6-1.3 1.3-2.1-2.3-5.7-1.8-11.5 1.3-16.1 1.6-1.3 2.9-2.3 4.2-2.3 1.6 0 2.9.8 4.4 3.6 1.8 2.3 2.1 5.2 1.3 9.6-.3 1.8-1.8 4.2-4.2 7.5.5.8 1 1.6 1.6 2.6-.3 1.1.5 3.2-1.3 3.2zm5.7 13.7c-3.4-1-3.9-1.6-3.9-2.1 0-.3.8-1.3 3.1-2.1 1.8 0 3.4.8 4.2 2.1 0 1.1-1.6 1.9-3.4 2.1zm13-20.8c-.8 2.3-1.8 4.2-3.6 5.2 1 1.8 1.3 3.1.5 3.9-.8.3-1.6.3-2.3.5-.8 0-.8.5-.5 1.3.3 1.6.5 2.6.3 2.9-.8.3-2.1-.3-3.6-1.8-3.6.5-5.5.5-6 .3-.3-.8-.5-1.3-.3-1.6 1-.3 2.1-.5 2.9-1-1-2.6-1-4.2 0-4.2.8-.3 1.3-.5 1.6-1 .8-.3 1.3-.5 1.3-1-.3-2.3.3-4.4 1.3-7.3.5-2.3 1-8.3 4.7-6.8.8.5 1.8 1.3 2.6 2.3 1.6 3.4 1.9 6 1.1 8.3zM143 .5l-.5 27.1c-1.3 6.8-5.7 10.7-13.3 12.2-3.9.8-6.8-.3-8.3-2.9l-.3-5.2-.8-1-14.8-.3.3-25.5c0-1.3-.5-2.3-1.8-3.1l5.5-.5.3 26.5c.5.5 2.9 1 6.5 1.3 3.6-.8 5.7-1.6 6.5-2.3-.5 3.9-.5 6-.3 6.2 2.6 3.4 5.7 5.2 9.9 5.2 3.4-.5 5.7-2.9 6.8-6.2.3-3.9.3-13.5.3-28.9 0-1-.5-1.8-1.8-2.6l5.7-.5.1.5zM90.2 1.6c3.6 10.4 7.3 19.2 11.2 26.8l2.3 2.3-3.6.3c-1.3.3-2.3-.5-2.9-1.8l-4.7-9.9L84 19c-2.3 5.2-3.4 8.6-3.4 10.4l.5 1-4.7.3v-1c3.1-5.7 6.2-12.8 9.1-21.9 0-3.1 0-4.7-.3-4.7l-.8-.8 5.8-.7zm-2.1 6.2h-.5l-2.9 8.9.3.8 5.5.3.8-.8-3.2-9.2zm156.1-6.2 2.9 7.8c2.9 7.8 5.7 14.3 9.1 20l1.6 1-.3.3-5.2-.3-5.2-11.2-.8-.8-8.3.6c-2.6 5.2-3.6 8.6-3.4 10.1l1.3 1-4.7.3c5.2-12.8 8.6-21.1 9.4-24.5.3-1.8-.3-3.1-1.6-4.2l5.2-.1zm-2.8 15.8 4.2-.8-3.4-9.4h-.8l-2.9 9.4 2.9.8zm71-15.6c4.4 12.2 8.6 21.6 12.2 27.6l.8.8c.3.3.5.5.5.8-.3-.3-1.6-.3-3.6 0-1.6.3-2.3-.3-2.9-1.8l-4.2-9.4-1-.5-8.1.3c-1.6 3.6-2.9 6.5-3.4 8.9-.5 1 0 1.8 1.3 2.3l-.3.3H299l4.7-10.7c3-8.4 4.3-13.6 4.3-15.7 0-.8-.5-1.8-1.3-2.3l5.7-.6zm-2.1 6-.3-.3c-1.8 5.5-2.9 8.8-2.9 9.6h6.2l.3-.5-3.3-8.8zM2.5 4.2v26.3l5.5.2-1.3-1.3-.3-11.2.6-.8c1.8-.5 3.4-.5 4.7.3l4.2 7c1.6 2.9 3.1 4.7 4.9 6.2 3.4 2.1 7 1.3 11.2-1.8l2.9 1.3c6.2 2.3 12.2 0 17.2-6.2 2.9-7 3.1-13 .3-18.2-2.3-3.1-6-4.7-10.9-4.7-8 .8-13 3.9-14.5 9.4-1.6 8.1-.8 13.8 2.6 16.6.3.5-.3 1.6-1.6 2.9-1.6 1.3-3.1 1-4.4-.5l-7.8-12.8.3-.3c4.2-3.4 5.7-6.2 5.2-9.6-.5-2.3-1.6-3.6-3.1-4.4-2.1-.8-4.9-1-8.6-.8l-8.9.5c1.1 0 1.6.8 1.8 1.9zm4.2 9.6L7 3.6c3.6-1.8 7-1.3 9.6 1.3 1.6 3.1 1.6 6.5 0 9.6-1.8 1.3-4.7 1.6-9.1.3l-.8-1zm39.5 14c-7.5 1.3-12.8-.8-15.9-5.7-1.3-3.1-1-8.3.5-15.1 1.3-2.6 5.2-3.6 11.7-2.9 3.1.5 5.2 1.8 6.5 3.6 1.6 4.2 1.8 9.6.5 16.4-.4 2.2-1.4 3.2-3.3 3.7zM173.7 6.2c1 2.6 1.6 5.7 1.3 9.4s-.8 6.8-2.3 9.1c-4.9 6-10.7 7.8-16.9 5.5-5.2-2.1-8.1-5.2-8.3-9.4-.3-7.5.8-12.2 2.9-14.3 4.4-4.7 10.1-6.2 17.2-4.7 2.7.8 4.8 2.1 6.1 4.4zm-3.1 2.4c-1.8-3.4-5.7-5.2-11.7-5.2-3.9 0-6.2 1.3-7 3.6-1.3 4.7-1.6 9.1-.8 13 .5 3.6 3.4 6.2 8.9 7.3 5.7.8 9.4-.3 10.7-2.6 1.5-3.9 1.5-9.3-.1-16.1zm42.7-5.5c6.5.3 10.7 2.1 12.2 5.5 1.8 3.9 2.3 9.4.8 15.6-.8 2.3-2.3 3.6-3.9 4.2l-13.3-.5-.8-.8.3-22.6 4.7-1.4zm-27.1-1.8-8.3.5c.8.5 1.6 1.6 1.8 3.1l-.3 25.5 5.7.3c-1-.3-1.6-.8-1.6-1.8l-.3-10.7.5-.8 4.7.3c4.7 7.8 7.3 12 8.1 12.8 1.6 1.6 3.9 2.1 6.8 1.3 3.4-1.3 5.7-1.3 7.3-.8 6.2.8 11.7-.8 16.4-4.9 3.6-2.9 4.7-8.3 2.9-16.4-1.3-2.9-2.9-4.9-4.4-5.7-2.9-1.6-6.5-2.3-11.2-2.3-3.9.3-7.8.3-11.7.3l1.3 1.3c.5 2.9.8 6.2.8 10.9v11.2c0 2.9-.3 4.4-1.3 4.9-1.8.5-4.2-1.6-6.8-6.2l-4.4-7.3c.3-.5.8-1 1.8-1.8 3.1-2.6 4.2-5.2 3.6-8.3-.8-2.3-1.8-3.6-3.4-4.2l-8-1.2zm6.8 3.1c1.8 3.1 1.8 6.8.3 9.9-1.8 1.6-5.2 1.8-9.4.3l-.5-1.3.3-9.6c1-.8 3.4-1 7.3-.5l2 1.2zM59.8 1.3l8.6 16.1h.5c4.1-5.7 6.7-10.4 7.3-14 0-.8-.5-1.6-1.3-1.8l4.6-.6c-.5 3.1-2.1 6.2-4.2 9.9l-5.7 8.9v8.9l1 1.8-5.2.3-.4-.9v-9.6c-4.9-9.9-8.3-15.9-10.2-18l-1.3-.5 5.2-.8 1.1.3zm225 .8-.8 30.2h-.8c-7.3-7.3-13.8-15.1-20-23.1-.5-.3-.8 0-.8.3l.3 18.5c0 1.3.8 2.3 1.8 2.9h-4.2c.3-15.4.5-23.7.3-25.2s-1.3-2.6-2.9-3.1l4.7-.8c7 9.9 13.5 18 19.5 23.9.3.3.8-.3.8-1.3L283 14c0-3.9-.3-7.3-.8-9.6l-1.8-1.8 4.4-.5zm11 26.5 1.8 2.3h-5.7v-27L290 2.1l5.5-.5.3 27zM353 3.1l-.5 29.4h-.8c-4.9-4.7-12-12.5-20.8-23.1l-.3.3c-.3 8.9-.3 15.4.3 19.5l1.8 1.8-4.2.3-.3-.8c.8-12.2 1-20.3.5-24.2-.8-1.8-1.8-3.1-2.9-3.6l5.2-.3c6.5 9.4 12.8 17.2 19.2 23.4l.8-1 .3-10.1c0-4.2-.3-7.8-1-10.7l-1.6-1.3 3.6-.5.7.9z" class="st0"/><path d="M205.7 70.5c1.3-4.2 3.4-6.8 6-8.1h1c2.1 7 3.9 11.2 5.7 12.5 10.4 9.1 25.8 10.4 47.3 3.9 6.2-1.8 14.8-5.7 25.2-12-.5 4.2.3 6.8 2.6 8.1 2.3.8 4.2-.5 6-4.2l.8-1.8C298 58 296.7 50.4 296.7 46l-.5-.8-10.7 3.9 9.1-5.5c3.6-2.6 5.7-5.2 7-8.6l2.1-7.8-1 17.2-.3-3.1c0-1.3-.5-1.6-1.8-.8l-3.4 4.2c2.6 13.3 4.2 21.3 5.2 24.2 1 1.8 2.6 2.9 4.2 2.9 2.3-.5 3.9-2.3 4.7-5.2.3-2.9-.3-6.2-1-10.2L308 46.3l.8-3.1 3.4 14.6c1.8 5.7 4.4 9.6 8.9 10.9 1.8 0 3.4-.5 4.2-1.8.3-12.8-1-21.3-4.2-25.8-.8.5-1.3 1.3-1 2.6l.3 3.4c.8 4.7 1 8.6.3 11.2L318.4 45c-.8-5.2-.8-9.9.3-13.3 5.7 6.8 8.6 16.7 7.8 29.7 1 2.1 2.9 2.3 4.9.8 1.6-.3 2.3-.3 2.6 0 .3 2.9-1 4.4-3.4 5.7-3.4 2.1-5.2 3.6-6 4.2-2.6 2.3-4.7 2.6-6.5 1l-5.2-5.2c-1.8 4.7-3.6 7.8-5.2 8.8-2.1.3-3.6-.5-5.2-2.3l-2.1-2.3-5.5 7.5c-2.3.3-3.6-.5-4.2-2.9l-.8-2.9-.8-2.6c-20.3 13.3-40.1 18.2-59.3 14.3-8.1-2.1-13.5-6.5-16.4-13.3l-1.8-5.5c-2.9 1-4.4 3.6-5.5 7.3l-3.1 9.1c-1 2.1-2.6 2.3-4.4 1-3.4-1.6-4.7-6.5-4.2-14.8.3-3.4 2.6-7 6.8-10.9 4.2-4.2 6.8-7.5 7.5-10.4l-6.8 1.3c-.3-.8 0-2.6.8-4.7l8.3-3.1c.3 4.7-2.1 9.9-6.8 15.6-5.5 6.5-8.6 11.5-9.4 14.8-.3 2.9 0 4.4 1.3 5.7 1.8 1.8 3.6 2.3 4.9 1.6l4.7-8.7zM174 53.6l.3 17.7c-1.3-12.2-1.6-21.1-.8-26 6.2 8.3 8.3 18 6 28.6-1.3 6.5-3.9 10.4-8.9 10.9l-7.8-2.6c-2.6 2.6-4.7 3.6-6.5 3.6-.8.3-1.8-.5-3.6-1.8-1.3-1.3-2.3-1.6-3.6-.5-2.9 1.6-6.5 2.6-11.2 3.1 5.2-3.1 9.1-5.5 11.2-7.8-1.8-11.7-1-21.1 2.1-27.8 4.2 8.9 4.7 18.2 1.8 27.6 1 1.8 2.6 2.6 4.2 2.1 1.8 0 3.4-.8 3.9-2.1-2.6-9.6-2.3-18.7 1-27.8 4.2 6.5 4.9 15.6 2.6 27.3 1.3 1.8 2.6 2.3 4.2 2.1 4.2 0 7.3-2.9 9.1-8.3 2.1-5.2 1-11.5-3.4-18.5l-.6.2zm-11.7 5.7c-2.3 3.9-2.6 8.8-.5 14.3.5 1.6 1.3 1.8 2.1 1 2.8-5.4 2.5-10.6-1.6-15.3zm-10.9-.8c-2.3 5.5-2.9 10.7-1 15.3.3.8.8 1 1.6 1.3 2.9-3.6 2.9-9.4 0-16.7h-.6zm135.5 26.6c-.5 3.4-1.6 4.9-3.1 5.2l-5.5 2.1 1-3.9 3.6-1.8 4-1.6zM84 85.8l-7.3 2.9c-.3-2.3.8-3.6 2.9-4.4L85 82l-1 3.8c0 .1 0 .1 0 0zM58.5 58.5c-.3 1.3-.8 2.3-2.1 2.6l-2.9 1c-.8-.3-1-1-.8-2.3 1.6.5 2.6.5 2.9 0l1.6-.8c1 .3 1.3.1 1.3-.5zm193.3 5c-.8-.3-.8-1-.5-2.6 1 .8 1.8 1 2.3.8 1.6-1.3 2.3-1.6 2.6-1.3l1-1c.3 1.6-.5 2.6-1.8 3.1l-3.6 1zm-111.6-1.6c-1.6 1.3-2.3 3.4-2.6 6l-1 6.8c-1.6 4.7-3.6 8.1-6.2 9.6l-10.7 1.8c9.4-4.9 14.6-10.4 16.4-15.6l2.3-11.5c2.5-3.6 3.1-2.5 1.8 2.9zm-21.9-2.6c-1-2.3-2.9-3.4-5.5-2.9-2.3.3-4.2 1.8-5.5 4.2-.3 1.8.3 3.6 1.6 5.2l3.9 4.4.8 4.9c1.8-.8 3.9-3.6 6.2-8.8.8-1.8.3-4.4-1.5-7zM117 78.1c-2.3 2.9-8.1 5.2-17.4 7.8 7.8-4.7 12-8.1 13-9.4l.3-.8c-5.7-5.5-7.8-12-6-19.2.8-3.4 2.9-5.2 5.5-5.5 2.9-.3 4.9.5 6.8 2.9 4.6 7 3.8 15.3-2.2 24.2zM97.5 49.2l-1.8 3.9-2.6-1.8c-.8-.5-1-1.3-.5-2.1 0-1.8.8-2.9 2.1-2.6l2.8 2.6zM76.9 71.6c-9.9 5.2-19.5 8.1-29.1 8.8-13.3 0-22.4-3.6-27.3-10.9l-1-3.6c-.3-1.3-1-2.3-1.8-2.9-2.6 1.3-4.4 3.9-6.2 7.8-2.1 4.9-3.6 8.1-4.2 9.4-1.3 1-3.1.8-4.9-1-1.8-1.6-2.1-3.6-1.3-6 .8-3.6 3.9-8.8 9.9-14.8 5.5-5.5 8.1-10.7 7.8-15.1-.3.5-2.3 1-6 1.8-2.9.8-3.6 2.6-3.4 5.2l6.8-1.6.5 1.3c-1.3 2.6-3.6 5.2-7 8.3-3.6 3.1-6.2 5.7-7.3 8.1-2.9 6-3.1 11.4-.3 16.9 1.8 1.8 3.6 2.6 4.7 2.3 1.8-1.3 3.4-3.9 4.4-7.8 1.3-3.9 2.9-6.8 4.2-8.3 1.8-1.3 2.9-1.6 3.1-.5.8 6.2 3.6 10.7 9.6 12.8 9.9 3.9 20 4.4 31 1.8 10.1-2.6 19-7.5 27.3-15.1H88c.5 2.9 1.3 4.7 2.6 5.5 1.6 1 2.9.8 3.6-.5 3.4-6.8 4.9-10.9 4.9-11.7l-3.4 4.9c-1.3 2.3-2.6 3.1-4.2 2.3-.8 0-1.6-2.3-2.3-6.5l-11.4 8.8-.9.3zm-4.1-26.8-1.8.5c-12.8 4.2-24.5 7.3-34.6 9.6-.5-.8-.3-1 1-1.3L72.5 44l1-1.3c.1.8-.2 1.3-.7 2.1zm74.4-2.1 1.6-.8c.3.8-.3 2.6-1.3 4.7-1.3.8-2.6 1.3-3.9 1.8l2.9-1.8c1-.8 1.6-1.8 1.6-2.6-.8-.8-1.3-.8-2.1 0v-2.6c-.4 1 .1 1.5 1.2 1.3zm86.6 11.9 39-12.8-1.6 2.1-2.9 1.3-35.6 11.2c.4-1 .9-1.5 1.1-1.8zm107.5 1.9c-1-6.2-1-10.9-.3-14.8 9.1 8.8 11.5 20 7.8 33.3-1.6 6.5-4.4 10.2-9.1 10.7l-11.2.8 11.5-5.7c4.4-2.6 7.3-6 8.6-10.7 1.6-6-.3-12.5-5.5-19.5-.3.3-.3 1.8-.3 4.9.8 7.3 1 12.2.3 15.1l-1.8-14.1z" class="st0"/></svg>