<svg xmlns="http://www.w3.org/2000/svg" xml:space="preserve" id="Layer_1" x="0" y="0" version="1.1" viewBox="0 0 299.8 122"><style>.st0{fill:#0098ca}</style><g id="g1956"><path id="path1936" d="M287.1 55.3c0 11.1-8 17.8-21 17.8-7.8 0-15.5-2.3-21.7-7-1.6-1-2.3-2.8-2.3-4.7 0-3.1 2.6-5.7 5.7-5.7 1.3 0 2.3.5 3.6 1 4.9 3.6 9.6 5.2 15 5.2s8.5-2.1 8.5-5.7v.3c0-3.6-2.6-5.2-11.9-7.5-10.9-2.8-19.1-5.7-19.1-17.6v-.3c0-10.1 8.3-17.3 20.2-17.3 6.7 0 12.9 1.8 18.4 5.2 1.3.8 2.6 2.3 2.6 4.9 0 3.1-2.6 5.7-5.7 5.7-1 0-2.1-.3-3.1-1-4.4-2.6-8.5-3.9-12.2-3.9-4.7 0-7.8 2.1-7.8 5.2v.3c0 4.1 2.6 5.2 12.7 7.8 10.8 3.1 18.1 7 18.1 17.3M146.7 14.2c-15.5 0-27.2 12.7-27.2 29.8v23c0 3.4 2.8 6.2 6.2 6.2 3.4 0 6.2-2.8 6.2-6.2V44c0-10.1 5.9-17.3 14.7-17.3s14.7 7.2 14.7 17.3v23c0 3.4 2.9 6.2 6.2 6.2s6.2-2.8 6.2-6.2V44c-.1-16.8-11.8-29.5-27-29.8m-31.6.3c-3.1-1.6-6.7-.3-8.3 2.9L90.8 50l-16-32.6c-1.6-3.1-5.2-4.4-8.3-2.9s-4.4 5.2-2.8 8.3L84 63.9l-8.5 17.6c-1.6 3.1-.3 6.7 2.8 8.3.8.5 1.8.8 2.6.8 2.3 0 4.4-1.3 5.4-3.4l31.6-63.9c1.3-3.4.3-7.3-2.8-8.8M22.2 27.9c-3.4 0-6.2 2.9-6.2 6.2s2.9 6.2 6.2 6.2 6.2-2.8 6.2-6.2-2.5-6.2-6.2-6.2M31.6 0h-4.4C10.9 0 1 10.1 0 27.2v39.6C0 70.2 2.8 73 6.2 73s6.2-2.8 6.2-6.2V29.5c0-15.3 8.5-17.1 14.7-17.1H31c3.4 0 6.2-2.6 6.2-5.9.6-3.4-2-6.2-5.6-6.5m18.3.3c-3.4 0-6.2 2.8-6.2 6.2V67c0 3.4 2.8 6.2 6.2 6.2s6.2-2.8 6.2-6.2V6.5C55.9 3.1 53.3.3 49.9.3M208 14.2c-16 0-28.2 12.4-28.4 29v.8c.3 16.5 12.4 29 28.4 29 2.3 0 4.7-.3 5.7-.5 3.4-.8 5.4-3.9 4.9-7.2-.8-3.4-3.9-5.4-7.2-4.9-.3 0-1.6.3-3.4.3-9.6 0-16-7-16-17.1s6.7-17.1 16-17.1 16 7.2 16 17.3V67c0 3.4 2.9 6.2 6.2 6.2s6.2-2.8 6.2-6.2V44c0-16.8-12.1-29.5-28.4-29.8m86.4 11.9c3.1 0 5.4-2.6 5.4-5.4 0-3.1-2.3-5.4-5.4-5.4s-5.4 2.6-5.4 5.4c-.1 3.1 2.2 5.4 5.4 5.4m0-.7c-2.6 0-4.7-2.1-4.7-4.7s2.1-4.7 4.7-4.7 4.7 2.1 4.7 4.7c-.1 2.6-2.2 4.7-4.7 4.7M292 23c0 .3.3.8.8.8.3 0 .8-.3.8-.8v-1.3h1l1.3 1.8c.2.2.3.3.5.3.3 0 .5-.3.5-.8 0-.2-.1-.3-.3-.5l-1-1.3c.8-.3 1.3-.8 1.3-1.8 0-.5-.3-1-.5-1.3-.5-.5-1-.8-1.8-.8h-2.1c-.3 0-.8.3-.8.8V23h.3zm1.3-2.6v-1.8h1.3c.8 0 1 .3 1 .8s-.3.8-1 .8l-1.3.2z" class="st0"/><path id="path1938" d="M224.5 98.6c0-1-.8-2.1-2.1-2.1-1 0-2.1.8-2.1 2.1v17.6h-7.5c-1.8 0-7.5 0-7.5-8.5v-9.1c0-1-.8-2.1-2.1-2.1-1 0-2.1.8-2.1 2.1v9.1c0 8 4.1 12.4 11.4 12.4h9.6c1 0 1.8-.8 1.8-2.1v-.3l.6-19.1z" class="st0"/><path id="path1940" d="M231.8 112V89.8c0-1-.8-2.1-2.1-2.1-1 0-2.1.8-2.1 2.1V112c0 1 .8 2.1 2.1 2.1 1.3-.3 2.1-1.1 2.1-2.1" class="st0"/><path id="path1942" d="M213.9 91.3c.5 0 1-.3 1.3-.5.5-.5.5-.8.5-1.3s-.3-1-.5-1.3c-.5-.5-.8-.5-1.3-.5s-1 .3-1.3.5c-.5.5-.5.8-.5 1.3s.3 1 .5 1.3c.3.5.8.5 1.3.5" class="st0"/><path id="path1944" d="M190.9 96.7c-1 0-2.1.8-2.1 2.1v11.1h-7c-1.8 0-7.5 0-7.5-8.5V89.5c0-1-.8-2.1-2.1-2.1-1 0-2.1.8-2.1 2.1v11.9c0 8 4.1 12.4 11.4 12.4h9.1c1 0 2.1-.8 2.1-2.1V98.5c.3-1-.5-1.8-1.8-1.8" class="st0"/><path id="path1946" d="M190.9 91.3c.5 0 1-.3 1.3-.5.5-.5.5-.8.5-1.3s-.3-1-.5-1.3c-.5-.5-.8-.5-1.3-.5s-1 .3-1.3.5c-.5.5-.5.8-.5 1.3s.3 1 .5 1.3c.3.5.8.5 1.3.5" class="st0"/><path id="path1948" d="M164.8 96.7c-1 0-2.1.8-2.1 2.1v6.7c0 .3 0 4.7-3.6 4.7h-5.9l.3-.5c.5-1.3.8-2.8.8-4.1v-6.7c0-1-.8-2.1-2.1-2.1s-2.1.8-2.1 2.1v6.7c0 .3 0 4.7-3.6 4.7h-4.7V98.8c0-1-.8-2.1-2.1-2.1-1 0-2.1.8-2.1 2.1v17.6h-7.2c-1.8 0-7.5 0-7.5-8.5v-9.1c0-1-.8-2.1-2.1-2.1-1 0-2.1.8-2.1 2.1v9.1c0 8 4.1 12.4 11.4 12.4h9.3c1 0 2.1-.8 2.1-2.1v-4.4h17.6c5.2-.3 7-5.2 7-8.5v-6.7c.5-1.1-.3-1.9-1.3-1.9" class="st0"/><path id="path1950" d="M249.6 117.2c-.5 0-1 .3-1.3.5-.5.5-.5.8-.5 1.3s.3 1 .5 1.3c.5.5.8.5 1.3.5s1-.3 1.3-.5c.5-.5.5-.8.5-1.3s-.3-1-.5-1.3-.8-.5-1.3-.5" class="st0"/><path id="path1952" d="M243.9 117.2c-.5 0-1 .3-1.3.5-.5.5-.5.8-.5 1.3s.3 1 .5 1.3c.5.3.8.5 1.3.5s1-.3 1.3-.5c.5-.5.5-.8.5-1.3s-.3-1-.5-1.3-.8-.5-1.3-.5" class="st0"/><path id="path1954" d="M275 93.4c-4.4-.3-8.5 1.3-11.6 3.9l-.3.3-.8.8-.8.5v-9.1c0-1-.8-2.1-2.1-2.1-1 0-2.1.8-2.1 2.1v16c0 .5.3 1 .5 1.3.5.5.8.5 1.3.5s1-.3 1.3-.5.5-.5.5-.8v-.5c.3-.8.5-1 .8-1.6.5-.8 1-1.6 1.5-2.3.5-.5 1-1.3 1.8-1.8l.3-.3c2.1-1.8 5.4-2.8 8.8-2.8 5.7.3 6.7 2.6 6.7 6.2v6.5h-32.3l.3-.5c.5-1.3.8-2.8.8-4.1v-6.7c0-1-.8-2.1-2.1-2.1-1 0-2.1.8-2.1 2.1v6.7c0 .3 0 4.7-3.6 4.7h-3.9V98.3c0-1-.8-2.1-2.1-2.1-1 0-2.1.8-2.1 2.1v13.4c0 3.6-3.1 5.9-4.4 6.5-1 .5-1.6 1.6-1 2.6.5 1 1.6 1.6 2.6 1 2.6-1 5.9-3.9 6.7-8v-.3h44.8c1 0 2.1-1 2.1-2.1v-8.5c1-5.9-2.6-9.3-9.5-9.5" class="st0"/></g></svg>