<svg xmlns="http://www.w3.org/2000/svg" id="Layer_1" data-name="Layer 1" viewBox="0 0 481.43 126.28"><defs><style>.cls-2{fill:#0198ca;stroke-width:0;fill-rule:evenodd}</style></defs><path d="m375.05 19.85 35.69-2.13c-18.85-.63-30.04-.63-33.55-.25l-5.28 1.13c-.63.63.5 1 3.14 1.26zm-7.91 8.93 58.69-1.26-56.81-2.01c-7.54-.5-11.69 0-12.32 1.38-1.13 1.89 2.51 2.51 10.43 1.89zM346.4 40.09l88.61-3.14-79.81-1c-6.03 0-9.17.63-9.17 1.88l.38 2.26zm5.91 11.81 88.98-4.02-96.4-1.51c-2.51.26-3.89.88-4.15 2.14-.37 2.76 3.39 3.77 11.56 3.39zm-12.83 10.18 105.32-2.64-97.4-2.76c-6.29 0-9.55 1.01-10.06 3.39-.12 1.01.63 1.88 2.14 2.01zm-.87 10.69 33.3-.38 4.65-5.28h-33.3c-5.03 0-7.29 1.13-6.66 3.39.12 1.26.75 2.14 2.01 2.26zm7.41 11.18 21.12-1.51 2.76-4.77-24.76.38c-4.77 0-7.17 1.01-7.17 2.89 0 1.51.63 2.39 1.76 2.52l6.29.5zm3.27 10.06 53.66-2.14-3.77-3.77-51.78.38-5.4.63c-.63.5-.88 1.26-.63 2.39.38 2.26 3.14 3.14 7.92 2.51zm60.83 6.66-53.41-.38c-6.54 0-9.43.76-9.3 2.64.63 2.39 4.27 3.02 11.18 2.39l54.8-1.26-3.27-3.39zm6.66 10.93-57.44-.5c-1.26 0-1.88.5-1.88 1.51 0 1.89 4.02 2.76 11.94 2.26l53.04-1.88-5.65-1.38zm-36.2 11.06 31.42-1.01-32.93-1.26c-4.4-.63-6.66-.25-6.66 1.26l8.17 1.01z" class="cls-2"/><path d="M469.94 4.9c-11.43 4.9-33.68 17.85-66.61 39.21 16.97-9.43 32.55-16.72 47-21.99l25.77-8.55 5.02.38c1.01.63-.5 1.51-4.02 2.51-6.03 1.89-17.22 6.54-33.56 14.07-18.85 8.55-29.66 14.58-32.8 18.35l21.75.51c-3.15 3.9-6.91 6.04-11.32 6.29l-4.15.12c4.78 7.79 12.57 12.19 23.25 12.82l7.29.37.38 5.66-30.54 3.01 29.53 1.88c.38 4.4.26 6.66-.37 6.66h-29.79l27.4 4.02-1.63 7.04-24.76 1.89 21.99 2.38-5.15 7.04-13.45 1.76 10.43 2.26-11.44 7.92c-8.17-8.17-14.33-15.08-18.22-20.23l-8.04-11.19-11.06 2.39c9.68-6.91 14.83-12.19 15.71-15.33-.25-6.03-.63-10.05-1.26-12.31l-4.02 4.14c-.63-6.03-1.63-9.8-2.64-11.31l-1.51 4.65-6.66 5.78 4.77-.37c-2.89 16.09-9.42 26.39-19.73 30.54l-6.03-6.28 4.15-3.77-6.29 1.88-1.26-1.88c6.16-10.18 10.94-17.34 14.7-21.49l18.22-16.59c10.31-8.55 19.73-15.71 28.66-21.36 23.25-14.08 40.09-23 50.27-26.77 4.02-1.51 5.65-1.26 4.65.37l-4.65 3.52zM289.91 114.59v-3.29c0-1.71 2.22-3.48 6.58-5.25l2.41-1.2v12.27h5.18v-13.41l-.76-.32c-.13-.32 0-.63.31-.95.51-.44 1.9-1.39 4.24-2.97v21.12h-59.44c0 1.96-.76 3.54-2.34 4.62l-3.35 1.08c-1.07 0-2.15-.57-3.29-1.58-.63-.57-.51-.89.19-.95 1.58.51 2.84.32 3.79-.57.95-.63 1.39-1.45 1.39-2.59l.19-10.37-1.01-.38c-.25-.26-.13-.57.38-.89l4.11-3.03.13 11.19h4.74v-13.09c-1.14-.51-1.14-1.26 0-2.09l3.92-2.78v10.52c1.03-1.01 2.54-1.54 4.42-1.54h14.42c1.58 0 3.04.51 4.43 1.58 1.39 1.14 2.09 2.72 2.09 4.74l-.04 2.66h12.63v-2.53h-5.32zm-65.51-13.22v15.75h11.57v-4.43c-1.26-.32-1.39-.95-.32-1.9l3.99-2.78v12.58H212.7l.51-5.94c0-1.14 1.14-2.59 3.48-4.18 1.39-.95 2.66-1.71 3.8-2.21l.19-1.51c-.95-.32-1.27-.63-.95-.95l4.68-4.43zm70.82 8.47c-1.71.51-2.53 1.14-2.53 2.09h2.53v-2.09zm-78.66 7.28h4.05v-5l-3.1 1.58c-.95.63-1.27 1.84-.95 3.42zm-1.01-18.03c1.58 0 2.28.63 2.28 1.77 0 .95-.7 1.45-2.28 1.45-1.2 0-1.83-.51-1.83-1.45 0-1.14.63-1.77 1.83-1.77zm4.93 0c1.58 0 2.34.63 2.34 1.77 0 .95-.76 1.45-2.34 1.45-1.14 0-1.77-.51-1.77-1.45 0-1.14.63-1.77 1.77-1.77zm7.59 22.77c1.45 0 2.21.63 2.21 1.77 0 .95-.76 1.45-2.21 1.45-1.27 0-1.9-.5-1.9-1.45 0-1.14.63-1.77 1.9-1.77zm5.18 0c1.46 0 2.22.63 2.22 1.77 0 .95-.76 1.45-2.22 1.45-1.26 0-1.9-.5-1.9-1.45 0-1.14.63-1.77 1.9-1.77zm57.87-23.08c1.57 0 2.27.63 2.27 1.77 0 .95-.7 1.46-2.27 1.46-1.21 0-1.84-.5-1.84-1.46 0-1.14.63-1.77 1.84-1.77zm5.12 0c1.51 0 2.21.63 2.21 1.77 0 .95-.7 1.46-2.21 1.46-1.14 0-1.77-.5-1.77-1.46 0-1.14.63-1.77 1.77-1.77zm-17.44 18.34h-21.52v-3.69c.6-1.06 1.54-1.62 2.91-1.62H276c1.52 0 2.34.32 2.66 1.07l.19 1.77-.04 2.47zm35.9-17.52v20.99h-3.92v-16.88c-.38.13-.63 0-.7-.32l.32-.95 4.3-2.84zM128.81 84.62h14.65l-29.3-65.57h-5.44l-28.6 65.57h8.51l8.31-20.37h23.56l8.31 20.37zM99.39 58.25l9.33-22.88 9.33 22.88H99.38zm137.4 26.37h14.65l-29.29-65.57h-5.44l-28.6 65.57h8.51l8.31-20.37h23.56l8.31 20.37zm-29.42-26.37 9.33-22.88 9.33 22.88h-18.67zm-66.11-39.2h49.63V27h-17.72v57.62h-14.09V27h-17.82v-7.95zM74.14 52.69c0-19.49-16.52-35.29-36.9-35.29S.35 33.2.35 52.69s16.52 35.29 36.9 35.29c1.84 0 3.63-.17 5.4-.42l19.62 17.7 10.46-8.37L52 85.03c13.03-5.45 22.14-17.87 22.14-32.34zm-36.9 29c-13.53 0-24.5-12.98-24.5-29s10.97-29 24.5-29 24.5 12.98 24.5 29-10.97 29-24.5 29zm252.84-27.62c6.83-1.39 16.67-7.81 16.67-20.72s-15.24-14.3-15.24-14.3h-29.06v65.57h11.44V55.46h3.91l18.83 28.46h16.18l-22.74-29.85zm-16.19-4.05V22.54h14.79s7.95 4.47 7.95 12.7-3.49 14.79-8.51 14.79h-14.23z" class="cls-2"/><path fill="#0198ca" stroke-width="0" d="M84.54 97.53h3.15l8.36 21.4H92.9l-2.34-6.44h-9.05l-2.4 6.44h-2.94l8.36-21.4zm-2.13 12.56h7.25l-3.57-9.98h-.06l-3.63 9.98zm15.86-12.56h2.85v21.4h-2.85v-21.4zm7.64 0h10.07c4.02 0 6.5 2.19 6.5 5.61 0 2.58-1.14 4.71-3.72 5.43v.06c2.49.48 3 2.31 3.21 4.41.18 2.1.06 4.44 1.26 5.9h-3.18c-.81-.87-.36-3.18-.78-5.28-.3-2.1-.81-3.87-3.57-3.87h-6.95v9.14h-2.85v-21.4zm8.78 9.86c2.67 0 4.95-.69 4.95-3.81 0-2.1-1.14-3.66-3.81-3.66h-7.07v7.46h5.94zm30.54 11.54h-2.97l-4.89-17.99h-.06l-4.95 17.99h-2.97l-5.49-21.4h2.91l4.2 17.8h.06l4.8-17.8h3.09l4.74 17.8h.06l4.35-17.8h2.85l-5.72 21.4zm13.52-21.4h3.15l8.36 21.4h-3.15l-2.34-6.44h-9.05l-2.4 6.44h-2.94l8.36-21.4zm-2.12 12.56h7.25l-3.57-9.98h-.06l-3.63 9.98zm22.36.09v8.75h-2.85v-8.75l-8.27-12.65h3.39l6.41 10.19 6.26-10.19h3.24l-8.18 12.65zm22.96-6.39c-.33-3.06-2.37-4.38-5.3-4.38-2.4 0-4.8.87-4.8 3.66 0 2.64 3.42 3.03 6.86 3.81 3.42.78 6.83 1.98 6.83 6.17 0 4.56-4.46 6.39-8.36 6.39-4.79 0-8.84-2.34-8.84-7.55h2.7c0 3.6 3 5.16 6.23 5.16 2.58 0 5.43-.81 5.43-3.9s-3.42-3.45-6.83-4.2c-3.42-.75-6.86-1.74-6.86-5.67 0-4.35 3.87-6.27 7.76-6.27 4.38 0 7.7 2.07 7.88 6.77h-2.7z"/></svg>