<svg xmlns="http://www.w3.org/2000/svg" id="Layer_1" data-name="Layer 1" viewBox="0 0 433.71 138.46"><defs><style>.cls-1{fill:#0198ca;stroke-width:0}</style></defs><path d="M0 44.04c20.55 10.91 74.16 50.64 131.22 66.79 2.74.8 5.48 1.51 8.12 2.13 22.39 5.48 45.49 7.42 68.49 5.62-83.18-14.03-109.49-37.69-113.27-42.84-.43-.57-.61-.9-.61-.9-.24-.09 13.46-13.41 39.96-13.08 33.06.43 55.45 10.49 55.45 10.49a143.353 143.353 0 0 0-33.25-14.41c-5.24-1.61-10.58-2.88-15.97-3.83-3.35-.66-6.75-1.13-10.2-1.46-17.1-1.79-29.85 1.94-40.48 5.67-9.97 3.5-22.81 10.06-39.87 2.74-7.32-3.16-12.42-4.2-20.83-3.26C15.49 52.17 5.48 45.7.47 43.52l-.47.52zm433.57-16.95c.14-.61.38-2.13-.52-2.31-1.09-.24-2.31 2.74-2.69 3.4-2.83 5.38-2.31 7.32-1.84 15.73s-.66 13.23-.99 14.78-1.23 4.01-.14 4.11c1.04.09 1.65-.9 3.59-5.62s2.36-11.67 2.41-15.97c.05-3.92-.57-7.84-.19-11.71.09-.76.19-1.56.38-2.41m-51.97 13.32c-.71-.33-1.89 2.13-3.59 4.68-1.7 2.5-3.54 4.72-6.99 4.44s-2.17-4.44-1.84-5.95c.28-1.23.52-2.41.71-3.68.09-.66.24-1.42.14-2.08-.05-.43-.28-.61-.71-.57-.9.09-1.79 1.51-2.22 2.27-.57.94-.9 1.98-1.28 3.02-.47 1.42-.8 2.88-1.23 4.35-.38 1.28-.57 1.89-.57 1.89-13.37 8.5-42.89 12.38-55.88 12.8-12.99.38-27.82-2.46-35.43-5.72-7.6-3.26-8.55-6.14-8.88-5.95-.33.24-2.5 3.92-4.39 6.09-1.89 2.17-6.71 6.05-9.59 2.17-2.88-3.87-4.77-4.49-5.81-4.68-6.28-.99-14.36 8.79-15.92 13.6-1.18 2.88-2.69 7.6-2.08 7.6s.66-.33 3.5-4.82c3.59-5.67 7.94-7.56 11.05-6.9 3.12.66 2.74 5.2 6.99 5.38 6.75.33 11.81-7.84 12.52-8.64s.52-.8 1.56-.19 19.22 9.64 39.44 10.25c29.57.9 62.92-16.34 62.92-16.34s.09 5.1 4.49 4.68c6.71-.38 11.43-10.96 12.71-13.65 1.23-2.6.8-3.87.38-4.06" class="cls-1"/><path d="M336.4 33.23c3.02.94 5.2 3.45 5.57 4.25.33.8.09 1.32.52 1.42.33.05 1.04-.76 1.28-.94a38.02 38.02 0 0 0 4.35-4.35c.14-.19.33-.38.47-.57.19.09.38.14.57.19 3.02.94 5.2 3.45 5.57 4.25.33.8.09 1.32.52 1.42.33.05 1.04-.76 1.28-.94a38.02 38.02 0 0 0 4.35-4.35c.71-.85 1.18-1.56.71-2.65a6.968 6.968 0 0 0-1.98-2.41c-1.09-.94-2.27-1.75-3.5-2.5-.61-.38-1.65-1.23-2.41-.99-.66.19-1.32 1.13-1.75 1.61-1.13 1.23-2.22 2.5-3.26 3.83l-.05.05a7.224 7.224 0 0 0-1.79-1.98c-1.13-.99-2.36-1.84-3.68-2.6-.71-.43-1.75-1.23-2.55-.71-.71.47-1.32 1.32-1.89 1.94-.94 1.09-2.08 2.17-2.88 3.35-1.37 2.13-.38 2.41.57 2.69m-104.55-.01c3.02.94 5.2 3.45 5.57 4.25.33.8.09 1.32.52 1.42.33.05 1.04-.76 1.28-.94 1.51-1.32 3.02-2.79 4.35-4.35.14-.19.33-.38.47-.57.19.09.38.14.57.19 3.02.94 5.2 3.45 5.57 4.25.33.8.09 1.32.52 1.42.33.05 1.04-.76 1.28-.94a38.02 38.02 0 0 0 4.35-4.35c.71-.85 1.18-1.56.71-2.65a6.968 6.968 0 0 0-1.98-2.41c-1.09-.94-2.27-1.75-3.5-2.5-.61-.38-1.65-1.23-2.41-.99-.66.19-1.32 1.13-1.75 1.61-1.13 1.23-2.22 2.5-3.26 3.83l-.05.05a7.224 7.224 0 0 0-1.79-1.98c-1.13-.99-2.36-1.84-3.68-2.6-.71-.43-1.75-1.23-2.55-.71-.71.47-1.32 1.32-1.89 1.94-.94 1.09-2.08 2.17-2.88 3.35-1.37 2.13-.33 2.41.57 2.69m136.92 37.44c-1.09-.94-2.27-1.75-3.5-2.5-.61-.38-1.61-1.23-2.41-.99-.66.19-1.32 1.13-1.75 1.61-1.13 1.23-2.22 2.5-3.26 3.83l-.05.05a8.986 8.986 0 0 0-1.75-2.03c-1.13-.99-2.36-1.84-3.68-2.6-.71-.43-1.75-1.23-2.55-.71-.71.43-1.32 1.32-1.89 1.94-.94 1.09-2.08 2.17-2.83 3.35-1.37 2.08-.38 2.36.52 2.65 3.02.94 5.2 3.45 5.57 4.25.33.8.09 1.32.57 1.42.33.05 1.04-.76 1.28-.94 1.51-1.32 3.02-2.79 4.35-4.35.14-.19.33-.38.47-.57.19.05.38.14.57.19 3.02.94 5.2 3.45 5.57 4.25.33.8.09 1.32.57 1.42.33.05 1.04-.76 1.28-.94 1.56-1.37 2.98-2.79 4.35-4.35.71-.85 1.18-1.56.71-2.65-.61-.85-1.28-1.7-2.13-2.31m-94.72-.02c-1.09-.94-2.27-1.75-3.5-2.5-.61-.38-1.61-1.23-2.41-.99-.66.19-1.32 1.13-1.75 1.61-1.13 1.23-2.22 2.5-3.26 3.83l-.05.05a8.245 8.245 0 0 0-1.79-2.03c-1.13-.99-2.36-1.84-3.68-2.6-.71-.43-1.75-1.23-2.55-.71-.71.43-1.32 1.32-1.89 1.94-.94 1.09-2.08 2.17-2.83 3.35-1.37 2.08-.38 2.36.57 2.65 3.02.94 5.2 3.45 5.57 4.25.33.8.09 1.32.57 1.42.33.05 1.04-.76 1.28-.94 1.51-1.32 3.02-2.79 4.35-4.35.14-.19.33-.38.47-.57.19.05.38.14.57.19 3.02.94 5.2 3.45 5.57 4.25.33.8.09 1.32.52 1.42.33.05 1.09-.76 1.28-.94 1.56-1.37 2.98-2.79 4.35-4.35.71-.85 1.18-1.56.71-2.65-.57-.85-1.28-1.7-2.08-2.31m152.31-53.82c1.09-2.6.33-3.07 0-3.07-.76 0-2.83 3.78-5.1 8.69-1.65 3.5-2.41 7.32-2.17 11.15.05 2.5-.19 11.19-.33 12.14-.94 5.43-3.97 9.12-8.17 7.75-3.16-1.65-3.07-22.48-2.36-23.29 3.31-3.64 14.36-18.47 14.74-18.85 2.88-3.59 2.5-5.81 2.5-10.34 0-1.7-.94-1.04-1.7-.19-.14.14-13.79 16.48-17.29 22.72-2.98 5.38-.85 24.18-1.89 26.5-1.98 4.2-7.51 6.57-7.51 6.57-.19-1.23-.85-3.83-3.45-6.85s-6.71-.9-8.31 1.65c-1.61 2.5-4.53 7.23-3.83 10.44.66 3.21 4.06 4.39 6.14 4.39s4.11-.85 4.63-.43c.9.71-2.13 2.31-3.59 3.4-3.83 2.65-8.74 5.29-10.16 6.14-1.18.71-3.68 1.7-3.31 2.65.24.61 1.04.33 1.56.24 1.23-.19 4.68-.99 6.71-1.32 8.12-1.51 9.68-5.34 11.62-10.44 1.61-4.3 8.45-11.01 9.4-11.01.99 0 .24 7.18 5.34 7.18 14.64 0 14.31-28.86 14.17-34.72-.33-5.86 1.28-8.5 2.36-11.1M254.31 130.06l-11.71-13.84 15.4-16.2h-5.43l-15.16 15.92v-15.87h-11.62v2.08h.57c3.78.14 4.53.85 4.53 4.25v31.55h6.52v-18.19l15.49 18.19h10.39v-2.03l-.57-.05c-2.88-.28-4.87-1.61-8.41-5.81m38.17-7.37c0 8.31-2.88 12.23-9.02 12.23s-8.55-3.59-8.55-11.57V99.97h-11.57v2.08h.57c3.68.05 4.49.8 4.49 4.25v16.77c0 10.39 4.58 15.4 14.08 15.4s13.89-5.05 13.89-15.87V99.93h-3.87v22.77zm53.42-22.67-7.56 25.79-8.79-25.79h-10.53v2.08h.61c2.5 0 4.53 1.75 5.43 4.68l-6.61 18.85-7.65-25.65h-9.92v2.08h.61c2.17 0 3.73 1.65 4.72 4.87l9.26 31.36h3.07l8.74-25.08 8.74 25.08h2.88l11.15-38.31-4.16.05zm35.09 30.65-12.19-30.66h-9.73v2.08h.57c3.68.05 3.68 1.13 3.68 1.56 0 .28-.24 1.13-.85 2.65l-12.66 31.6h4.06l4.82-12.14h13.51l4.87 12.14h9.64v-2.08h-.57c-2.46-.05-3.54-1.18-5.15-5.15m-10.15-8.36h-10.72l5.38-13.46 5.34 13.46zm15.87-20.26h.57c3.83.14 4.53.8 4.53 4.25v31.55h6.47V99.97h-11.57v2.08zm47-2.03h-31.03v9.59h1.75l.09-.47c.61-3.16 1.28-4.39 2.65-5.05 1.09-.52 2.36-.66 5.81-.66h2.08v34.48h6.52v-34.48h2.03c6.57 0 7.42.57 8.45 5.72l.09.47h1.56v-9.59z" class="cls-1"/></svg>