<svg xmlns="http://www.w3.org/2000/svg" data-name="Layer 1" viewBox="0 0 505.68 83.31"><path fill="#0198ca" fill-rule="evenodd" d="m298.22 75.72 3.05-8.71c.53-1.49 1.96-2.35 3.2-1.92.91.32 1.46 1.17 1.5 2.22.02.24.06.56.25.86 2.72 4.84 8.95 8.07 16.45 7.54 6.46-.46 9-4.64 8.65-9.68-.13-1.89-1.41-3.81-1.88-4.46-.8-1.04-14.35-17.32-14.35-17.32-3.02-4.08-5-9.02-5.38-14.44C308.64 14.58 319.94 1.4 338.12.13c11.43-.82 20.41 2.19 27.21 7.43l-3.01 8.57c-.52 1.49-1.96 2.35-3.19 1.92-.91-.32-1.46-1.17-1.5-2.22-.02-.25-.07-.57-.25-.86-2.76-4.79-7.95-7.9-15.4-7.37-6.46.45-10.07 4.99-9.71 10.26.08 1.03.33 2 .7 2.91.77 1.86 1.74 3.62 2.93 5.21l7.51 9 3.46 4.2c3.03 4.07 6.68 8.9 7.07 14.33 1.06 15.22-10.24 28.4-28.41 29.67-11.43.82-20.5-2.22-27.3-7.46m140.33 0 3.05-8.71c.52-1.49 1.96-2.35 3.2-1.92.9.32 1.46 1.17 1.5 2.22.02.24.06.56.25.86 2.72 4.84 8.95 8.07 16.45 7.54 6.46-.46 9-4.64 8.65-9.68-.13-1.89-1.41-3.81-1.88-4.46-.8-1.04-14.36-17.32-14.36-17.32-3.02-4.08-5-9.02-5.38-14.44C448.97 14.58 460.27 1.4 478.45.13c11.42-.82 20.41 2.19 27.22 7.43l-3.01 8.57c-.52 1.49-1.95 2.35-3.2 1.92-.91-.32-1.46-1.17-1.5-2.22-.02-.25-.06-.57-.25-.86-2.76-4.79-7.95-7.9-15.41-7.37-6.46.45-10.06 4.99-9.7 10.26.07 1.03.33 2 .69 2.91.78 1.86 1.75 3.62 2.93 5.21l7.52 9 3.46 4.2c3.02 4.07 6.68 8.9 7.06 14.33 1.07 15.22-10.23 28.4-28.4 29.67-11.43.82-20.49-2.22-27.3-7.46m-35.99-64.91-15.29 35.26c-1.33 3.1-3.85 9.08-3.99 13.24 0 3.26 2.03 5.59 4.68 6.29.79.19 1.78.46 2.63.46 4.3 0 8.04-2.6 9.64-6.33L424.8 2.77h28.22c.35 0 .71.05 1.05.19 1.28.54 1.84 2 1.33 3.29-.34.84-1 1.31-2.16 1.45-2.11.33-2.97 1.3-3.76 3.14l-13.96 32.27c-7.29 18.76-25.58 31.99-46.92 31.99-7.06 0-13.71-1.62-19.71-4.5-5.67-2.92-9.6-8.83-9.6-15.64.15-6.99 1.76-13.77 4.55-19.77l11.08-25.66c.05-.12.09-.27.09-.42.02-.91-.68-1.38-1.12-1.57-1.03-.4-1.68-1.25-1.68-2.26 0-1.39 1.35-2.51 3.01-2.51h30.83c.35-.01.7.04 1.05.19 1.28.54 1.84 2 1.33 3.29-.34.84-1 1.31-2.16 1.45-2.11.33-2.93 1.27-3.71 3.11M248.17 36.04h14.84l-4.04-17.5-10.8 17.5zM0 72.1 27.35 8.51c.04-.13.09-.28.09-.42.02-.91-.68-1.38-1.12-1.57-1.03-.4-1.69-1.25-1.69-2.26 0-1.38 1.35-2.51 3.02-2.51h29.76l17.04.05c5.18 0 9.77 3.05 11.68 7.53 1.09 2.73 1.66 5.67 1.66 8.8 0 4.91-1.51 9.47-4.07 13.25-5.49 8.14-14.49 13.01-24.2 13.01H38.95l-9.1 21.38c-.04.12-.12.27-.12.42 0 .51.36.95.8 1.15 1.04.39 1.69 1.25 1.69 2.25 0 1.39-1.35 2.52-3.02 2.52H0zm42.65-36.02L54.19 9.27s1.84-.05 2.46.05c1.27.2 2.23.5 3.23 1.08 4.62 2.72 4.97 10.43.79 17.23-3.17 5.16-7.78 8.38-13.51 8.42l-4.5.03zm70.59 3.61-10.71 24.88 25.06.02c2 0 3.35-.69 4.48-2.49.59-1.02 1.73-1.58 2.77-1.58 1.39 0 2.52 1.12 2.52 2.51 0 .38-.09.73-.23 1.04l-3.5 8.04H71.14l27.13-62.9c.03-.13.09-.91.08-1.05-.08-1-1.22-1.52-1.66-1.72-1.03-.4-1.68-1.25-1.68-2.26 0-1.38 1.15-2.45 3.09-2.45h56.91l-4.29 9.93c-.65 1.53-2.22 2.32-3.49 1.77-.92-.4-1.45-1.34-1.41-2.44 0-.48-.15-1.31-1-1.65-.13-.05-.36-.07-.5-.08h-17.93l-10.1 23.45 15.07-.02c1.7-.12 2.69-.29 3.71-1.93.58-1.02 1.72-1.58 2.77-1.58 1.38 0 2.27 1.12 2.27 2.51 0 .38-.09.73-.23 1.04l-4.08 9.34c-.65 1.54-2.23 2.33-3.5 1.78-.93-.4-1.2-1.34-1.16-2.44 0-.48-.16-1.31-1-1.65-.09-.04-.23-.05-.35-.07h-16.54zm156.85 32.39c-1.67 0-2.99-1.11-2.99-2.5 0-1.01.65-1.86 1.68-2.25.44-.2 1.17-.67 1.12-1.58 0-.15-.02-.21-.05-.35l-4.86-20.82H242.9l-12.78 20.7c-.1.21-.12.32-.12.41-.02.92.69 1.38 1.13 1.57 1.03.4 1.69 1.24 1.69 2.25 0 1.38-1.34 2.52-3 2.53l-13.12.03c-.36.01-.72-.06-1.07-.2a2.5 2.5 0 0 1-1.33-3.29c.41-.97 1.28-1.33 2.45-1.47 1.65-.27 2.48-.89 3.25-2.04l40.03-63.31h24.52c1.66 0 3.01 1.15 3.01 2.54 0 1.01-.65 1.86-1.68 2.26-.44.2-1.11.65-1.09 1.57l14.89 63.96h-29.59zM224.98 35.8c.35-.01.7.04 1.06.19 1.27.54 1.84 2 1.32 3.29-.33.84-1 1.31-2.16 1.45-2.1.33-2.95 1.23-3.73 3.06l-12.1 28.04h-24.59l-1.04-1.9c-6.76 2.81-12.51 3.9-20.36 3.9-12.48 0-22.69-10.12-22.69-22.6 0-.77 0-1.54.09-2.29C143.98 21.48 167.26 0 195.6 0c13.65 0 21.43 2.52 32.85 8.07l-3.02 7.2c-.1.22-.21.42-.34.61-.77 1.12-2.08 1.67-3.16 1.17-1.35-.61-1.04-1.45-1.69-2.83-1.05-2.27-2.44-2.99-3.32-3.6-4.43-2.8-7.42-2.9-10.45-2.9-7.15 0-13.63 2.68-18.59 7.1-10.72 9.49-18.19 22.29-20.29 37.88-.07.47-.11.96-.11 1.45 0 5.54 4.42 10.11 9.97 10.11 6.8 0 10.52-3.93 13.13-9.75l4.79-11.24c.04-.12.11-.52.11-.66 0-1.46-1.2-1.88-1.64-2.07-1.03-.4-1.7-1.22-1.7-2.23 0-1.39 1.08-2.51 3.01-2.51"/></svg>