<svg xmlns="http://www.w3.org/2000/svg" xml:space="preserve" id="Layer_1" x="0" y="0" version="1.1" viewBox="0 0 390 129.6"><style>.st0{fill:#0098ca}</style><path d="M103.1 20.6c4.6 5.9 6.6 12.4 5.6 20 0 .7-.2.7-.5 0-1.9-6.6-5.6-12.2-10.7-16.8h-.2v.2c1.5 6.6 1.5 13.4 0 20 0 0 0 .2-.2 0-1.5-6.8-3.7-15.4-8.1-21 0 0-.2-.2-.5 0-4.1 5.6-6.3 14.1-7.8 20.7 0 0 0 .2-.2 0-1.5-6.6-1.7-13.4 0-20 0 0 0-.2-.2-.2h-.2c-5.4 4.6-8.8 10.2-11 17.1l-.2.2s-.2 0-.2-.2c-.7-7.6 1-14.1 5.6-20 .7-.7.5-1-.5-.5-6.1 3.4-11.5 8-15.8 13.4h-.2v-.2c2.2-11 8.5-17.8 19.5-20.5-7.3-.5-13.9 1.2-20 5.4 5.8-8.3 13.9-11.9 24.1-11 0 0 .2 0 .2-.2v-.3c-.7-1.2-1.9-1.9-3.2-2.7 0 0-.2-.2 0-.2h.2c2.9-.5 5.4 0 7.8 2h.2v-.3c.2-2 1-3.7 1.9-5.4 0 0 .2-.2.2 0 1 1.7 1.7 3.4 1.9 5.4 0 .2.2.2.2.2 2.2-1.7 4.9-2.4 7.6-2 0 0 .2 0 .2.2v.2c-1.2.7-2.2 1.5-3.2 2.7V7h.2c10.2-1 18.5 2.4 24.1 11v.2c-6.1-4.1-12.7-5.9-20-5.6 0 0-.2 0-.2.2 0 0 0 .2.2.2 10.7 2.7 17.1 9.3 19.3 20.2 0 .2-.1.2-.2 0-4.9-5.1-9.5-10-15.8-13.2-.3 0-.3.1.1.6zM199.4 33h5.6c.2 0 .5.2.5.5v5.6c0 .2-.2.5-.5.5h-5.6c-.2 0-.5-.2-.5-.5v-5.6c0-.2.2-.5.5-.5zm13.1 0h5.9c.2 0 .2.2.2.2v6.1c0 .2-.2.2-.2.2h-5.9c-.2 0-.2-.2-.2-.2v-6.1c-.3.1 0-.2.2-.2zm80.7 20h-12.7c-.2 0-.2.1-.2.2v12.9c0 .2.1.2.2.2h12.2c.2 0 .2.1.2.2v.2l-6.1 6.1h-13.2c-.2 0-.2-.1-.2-.2v-20l6.3-6.3h19.8c.2 0 .2.1.2.2V66c0 .2.1.2.2.2h3.7c.2 0 .2-.1.2-.2V53l6.6-6.6h20c.2 0 .2.1.2.2v6.1c0 .2-.1.2-.2.2H311c-.2 0-.2.1-.2.2V66c0 .2.1.2.2.2h23.6c.2 0 .2-.1.2-.2V46.6c0-.2.1-.2.2-.2h6.1c.2 0 .2.1.2.2v19.5c0 .2.1.2.2.2h6.1c.2 0 .2-.1.2-.2V46.6c0-.2.1-.2.2-.2h6.1c.2 0 .2.1.2.2v19.5c0 .2.1.2.2.2h6.1c.2 0 .2-.1.2-.2V46.6c0-.2.1-.2.2-.2h6.3c.2 0 .2.1.2.2v19.5c0 .2.1.2.2.2h3.7c.2 0 .2-.1.2-.2V33.2c0-.2.1-.2.2-.2h6.1c.2 0 .2.1.2.2v33.2l-6.6 6.6H300c-.2 0-.2.1-.2.2v6.6l-6.3 6.3h-20c-.2 0-.2-.1-.2-.2v-6.1c0-.2.1-.2.2-.2H293c.2 0 .2-.1.2-.2V53.2c.2 0 .2-.2 0-.2zM390 33.3v39.5l-6.1.2c-.5 0-.7-.2-.7-.7V33.5c0-.2.2-.5.5-.5l6.3.3zM28.5 63.5c19.3-.2 36.6 8.8 52.9 18 .2 0 .2.2 0 .2L56.5 96.2c-.2 0-.2.2 0 .5l4.1 4.6c.2.2.3.2.5 0L84 87.1h.5v.2l1.5 41.4c0 .3-.1.4-.2.2L61.4 102c-.2-.2-.3-.2-.5 0-2.4 1.2-4.9 2.9-7.1 3.7-5.6 2.2-11.5 2.7-17.5 1.2-2-.5-3.9-.7-5.9-1.2 0 0-.2 0-.2-.2 0 0 0-.2.2-.2 9.5-.5 18-3.4 25.6-8.8.2 0 .2-.2 0-.5L.2 34.2c-.2-.2-.2-.5 0-.7 0 0 .2 0 .2-.2h.7c27.3 5.4 54.4 11 81.7 16.3.2 0 .2.2.2.2l1 26.3c0 .2-.1.2-.2.2-18-8.5-34.9-16.3-55.3-13.7-3 .6-3 .9 0 .9zm120.9-.3c-19.5-3.7-38.5 4.9-55.8 13.4h-.2v-.2l1-26.3c0-.2.1-.2.2-.2l82.2-16.3c.2 0 .7.2.7.5s0 .5-.2.5l-55.8 61.7c-.2.2-.5.2-.7 0L96 81.8v-.2c8.5-5.1 17.6-9.5 26.8-13.2 8.8-3.4 17.3-4.9 26.3-4.9 1.5 0 1.5-.2.3-.3zm62.2 3.7-6.1 6.1h-12.9c-.2 0-.2-.2-.2-.2V53l6.3-6.3h19.8c.2 0 .2.2.2.2v19.3c0 .2.2.2.2.2h12.4c.2 0 .2-.2.2-.2V46.9c0-.2.2-.2.2-.2h6.1c.2 0 .2.2.2.2v19.8l-6.6 6.6h-19.8c-.2 0-.2-.2-.2-.2v-5.8c.5-.3.5-.4.2-.4zm.4-13.6c0-.2 0-.2 0 0h-13.2s-.2 0-.2.2v12.9s0 .2.2.2h12.9s.2 0 .2-.2l.1-13.1zm50.5-.3h-12.7c-.2 0-.2-.2-.2-.2v-6.1c0-.2.2-.2.2-.2h19.3c.2 0 .2.2.2.2v19.7l-6.6 6.6h-19.5c-.2 0-.2-.2-.2-.2l-.2-6.1c0-.2.2-.2.2-.2h19.5c.2 0 .2-.2.2-.2V53.5c.1-.2.1-.5-.2-.5zm-43.4 26.6h5.9c.2 0 .5.2.5.5v6.1c0 .2-.2.5-.5.5h-5.9c-.2 0-.5-.2-.5-.5v-6.1c.3-.3.3-.5.5-.5zm13.4 0h5.9c.2 0 .5.2.5.5v5.6c0 .2-.2.5-.5.5h-5.9c-.2 0-.5-.2-.5-.5v-5.6c0-.3.3-.5.5-.5zM93.1 86.9l23.2 14.4v.2l-24.6 27.3h-.2v-.2L93 86.9h.1zM311 129.6h-6.8v-19.8c0-.2-.1-.2-.2-.2h-12.7c-.2 0-.2.1-.2.2v12.7c0 .2.1.2.2.2h12c.7 0 .7.2.2.7l-6.1 6.1h-13.2V110c0-.2 0-.5.2-.5l6.1-6.3c.2-.2.3-.2.5-.2h12.7c.2 0 .2-.1.2-.2V90.1c0-.2.2-.5.5-.5h5.6c.2 0 .5.2.5.5l.5 39.5zm4.4-40h5.9c.2 0 .2.2.2.2v6.1c0 .2-.2.2-.2.2h-5.9c-.2 0-.2-.2-.2-.2v-6.1s0-.2.2-.2zm-103.4 40h-19.8v-6.3c0-.2.1-.2.2-.2h19.3c.2 0 .2-.2.2-.2v-6.1c0-.2-.1-.2-.2-.2h-19.3c-.2 0-.2-.2-.2-.2v-12.7c0-.2 0-.5.2-.5l6.1-6.1c.2-.2.3-.2.5-.2h19.3c.2 0 .5.2.5.5v6.1c0 .2-.2.5-.5.5h-19c-.2 0-.5.2-.5.5v5.8s0 .2.2.2h19.3c.2 0 .5.2.5.5v12.7c0 .2-.1.3-.2.5l-6.6 5.4z" class="st0"/><path d="M146.5 105.2h.5c.2.2.2.2 0 .2-2.4.5-5.1 1.2-7.3 1.7-8.3 1.2-15.8-.7-22.9-5.6-.2 0-.2-.2 0-.5l4.1-4.6c.2-.2.5-.2.7 0 7.3 5.4 15.6 8.3 24.9 8.8zm102.8 24.4h-6.6v-19.8c0-.2-.1-.2-.2-.2h-12.4c-.2 0-.7.2-.7.7v12.2c0 .2.2.5.5.5h11.9c.7 0 .7.2.2.7l-6.1 5.9h-13.2v-19.8c0-.2 0-.5.2-.5l6.1-6.1.2-.2h19.5c.2 0 .2.1.2.2l.4 26.4zm24.2 0h-19.8v-26.3c0-.2.2-.2.2-.2h5.8c.2 0 .5.2.5.5v19.3c0 .2.2.5.5.5h12.4c.2 0 .5-.2.5-.5v-19c0-.2.2-.2.2-.5h6.1c.2 0 .5.2.5.5v19c0 .2 0 .5-.2.5l-6.7 6.2zm48.3 0h-6.6v-26.3s0-.2.2-.2h6.1c.2 0 .2.1.2.2l.1 26.3zm30.7 0h-6.6v-6.1c-.2-.2-.2-.5 0-.5 0-.2.2-.2.2-.5v-12.4s0-.2-.2-.2h-12.7c-.2 0-.2.2-.2.2v12.7c0 .2.1.2.2.2h12.2c.2 0 .2.2.2.2v.2l-6.1 6.1h-13.2v-19.8c0-.2.1-.3.2-.5l6.1-6.1c.2-.2.5-.2.5-.2h19.5s.2 0 .2.2l-.3 26.5z" class="st0"/></svg>