<svg xmlns="http://www.w3.org/2000/svg" id="Layer_1" data-name="Layer 1" viewBox="0 0 425.11 117.34"><defs><style>.cls-1{fill:#0198ca;stroke-width:0}</style></defs><path d="M100.91 61.36c.58 0 .9.4.83.8.33-.45-.13-1.05-.83-1.05l-37.82 2.75 37.82-2.5zM65.1 110.95c-5.01 1-10.27 1-15.03.5-15.7-1.75-29.9-9.92-39.17-22.59l-.15.05c9.27 12.77 23.54 21.04 39.32 22.79 4.76.5 10.02.25 15.03-.5 26.67-4.61 45.5-27.12 46.53-52.92-1.18 25.9-20.14 48.31-46.53 52.67zm6.66-61.61c-1.18 5.89-4.63 10.49-8.67 14.53 4.23-4.03 7.56-8.66 8.67-14.53zm-.65-11.02C67.78 27.28 56.36 16.91 37.25 9.17c19.08 7.76 30.5 18.26 33.86 29.15zM25.88 9.12c-.03-.05-.08-.08-.1-.1C13.09 17.11 4 30.33 1.04 45.46 4.02 30.38 13.11 17.24 25.88 9.12z" class="cls-1"/><path d="M25.88 9.12c-.03-.05-.08-.08-.1-.1C13.09 17.11 4 30.33 1.04 45.46c-1.25 6.36-1.4 13.07-.3 19.91A56.538 56.538 0 0 0 8.5 85.91c.9-.25 1.78-.53 2.65-.8 1.75-.55 3.48-1.18 5.18-1.85 10.94-4.51 20.06-12.05 23.72-25.9 4.98-18.48-.73-37.97-14.17-48.23zm85.05 37.71C106.68 21.54 85.89 3.01 61.85.25c-.95-.1-1.9-.18-2.86-.2-3.96-.18-8.14.1-12.17.7-1.53.25-3.01.58-4.46.93-4.33 1.13-8.39 2.78-12.32 4.83 2.5.85 4.91 1.73 7.21 2.65 19.08 7.76 30.5 18.26 33.86 29.15.28.85.5 1.73.65 2.58.18.9.28 1.78.35 2.68.13 2.05-.02 3.96-.35 5.76-1.18 5.89-4.63 10.49-8.67 14.53l37.82-2.5c.58 0 .9.4.83.8-.03.3-.28.58-.83.7l-90 26-.15.05c9.27 12.77 23.54 21.04 39.32 22.79 4.76.5 10.02.25 15.03-.5 26.67-4.61 45.5-27.12 46.53-52.92.08-1.5.08-3.01 0-4.53-.1-2.28-.33-4.58-.7-6.91zm299.16 9.15V36.45h-19.54v19.53h-10.76V9.65h10.76v18.53h19.54V9.65h10.77v46.33h-10.77zM179.44 9.65V38.7c0 3.26.5 6.01 1.5 8.26s2.25 4.01 4.01 5.51c1.75 1.5 3.76 2.5 6.26 3.26 2.5.75 5.26 1 8.26 1s5.76-.25 8.01-1 4.26-1.75 6.01-3.26c1.5-1.5 2.75-3.26 3.76-5.51 1-2.25 1.25-5.01 1.25-8.26V9.65h-10.02v28.8c0 3.01-.75 5.26-2.25 7.01s-3.76 2.75-7.01 2.75c-3.01 0-5.26-1-6.76-2.75s-2.25-4.01-2.25-7.01V9.65h-10.77zm-30.81 46.33V18.42h-12.52V9.65h36.06v4.26c0 2.5-2 4.51-4.51 4.51h-8.26v37.57h-10.77zm171.8-46.33h10.77v46.33h-10.77zm-35.56 24.79.25.5 13.77 17.53c1.75 2.25 4.26 3.51 7.26 3.51h8.51l-19.53-24.79-.25-.25.25-.25L311.16 9.9h-11.02l-14.78 20.03-.25.5V10.15h-10.77v46.33h10.77V35.69l-.25-1.25zm-30.55 1.25.5-.25c3.01-1.5 5.01-3.01 6.01-5.26 1.25-2.25 1.75-4.26 1.75-6.51 0-4.26-1.25-7.76-4.01-10.27-2.75-2.5-6.51-3.76-11.52-3.76h-19.03v46.33h10.77V37.94h5.26l8.51 13.52c1.5 2.75 4.51 4.51 7.76 4.51h7.01l-13.02-20.29zm-4.26-6.51c-1 1.25-2.75 1.75-5.01 1.75h-6.26V17.91h6.26c2.25 0 4.01.5 5.01 1.75 1.25 1.25 1.75 2.75 1.75 4.76s-.75 3.51-1.75 4.76zm89.91 24.8v-8.77c3.51 1.5 7.76 3.26 12.27 3.26 5.26 0 7.76-1.75 7.76-5.26 0-4.01-3.51-4.51-10.77-7.51-4.76-2.25-9.52-5.51-9.52-13.27 0-9.02 7.01-13.27 16.53-13.27 5.01 0 9.27 1.25 11.77 2v8.77c-2.5-1-6.76-2.5-11.02-2.5-4.76 0-7.01 1.75-7.01 4.76 0 3.26 2.75 4.01 7.51 6.01 6.01 3.01 13.27 4.51 13.27 14.78C370.76 52 363.5 57 353.98 57c-5.51-.25-10.27-1.25-14.02-3.01zm16.78 62.36V70.01h29.05v4.26c0 2.5-2 4.51-4.51 4.51h-13.77V88.8h15.53v7.76h-15.53v11.27h18.28v8.77h-29.05v-.25zm-105.69 0V70.01h5.26c3.01 0 5.51 2.5 5.51 5.51v32.56h17.03v8.26h-27.8zM184.7 70.26h10.77v46.33H184.7zm46.83 25.54.5-.25c3.01-1.5 5.01-3.01 6.01-5.26 1.25-2.25 1.75-4.26 1.75-6.51 0-4.26-1.25-7.76-4.01-10.27-2.75-2.5-6.51-3.76-11.52-3.76h-19.03v46.33H216V98.05h5.26l8.26 13.77c1.5 2.75 4.51 4.51 7.76 4.51v-.25h7.26l-13.02-20.29zm-4.26-6.26c-1 1.25-2.75 1.75-5.01 1.75H216V78.27h6.26c2.25 0 4.01.5 5.01 1.75 1.25 1.25 1.75 2.75 1.75 4.76s-.75 3.51-1.75 4.76zm-66.12-19.29h-12.27l-17.53 46.33h7.76c2 0 3.76-1.25 4.26-3.01l1.75-5.51h18.78l2.75 8.51h11.52l-17.03-46.33zm-13.27 29.3 4.26-11.77c1-2.75 1.75-5.51 2.5-7.51h.25c.5 2 1.5 4.76 2.5 7.51l4.01 11.77h-13.52zm246.43 15.03v-9.02c3.51 1.5 7.76 3.26 12.27 3.26 5.26 0 7.76-1.75 7.76-5.26 0-4.01-3.51-4.51-10.77-7.51-4.76-2.25-9.52-5.51-9.52-13.27 0-9.02 7.01-13.27 16.53-13.27 5.01 0 9.27 1.25 11.77 2v8.77c-2.5-1-6.76-2.5-11.02-2.5-4.76 0-7.01 1.75-7.01 4.76 0 3.26 2.75 4.01 7.51 6.01 6.01 3.01 13.27 4.51 13.27 14.78 0 9.02-7.26 14.02-16.78 14.02-5.76-.25-10.27-1.25-14.02-2.75zm-88.15-44.32h6.51c3.26 0 6.01 1.5 7.76 4.26l13.02 20.79c1.5 2.25 3.26 5.26 4.26 7.51h.25c-.25-2-.25-5.01-.25-7.01V70.27h9.27v46.33h-11.77l-15.78-25.04c-1.5-2.25-3.01-5.01-4.01-7.01h-.25c0 2 .25 4.51.25 6.51v25.54h-9.27V70.27zm-20.54 0h10.77v46.33h-10.77z" class="cls-1"/></svg>