<?xml version="1.0" encoding="UTF-8"?>
<svg id="Layer_1" data-name="Layer 1" xmlns="http://www.w3.org/2000/svg" viewBox="0 0 413.52 413.51">
  <defs>
    <style>
      .cls-1 {
        fill: #fff;
      }

      .cls-2 {
        fill: #b2a396;
      }
    </style>
  </defs>
  <path class="cls-1" d="M413.51,206.76c0,53.98-20.67,103.09-54.58,139.92-37.75,41.09-91.96,66.83-152.18,66.83s-114.58-25.83-152.37-67.03C20.6,309.67,0,260.64,0,206.76,0,92.57,92.57,0,206.76,0s206.76,92.57,206.76,206.76h0Z"/>
  <path class="cls-2" d="M358.13,344.59c-4.32-11.63-10.38-22.28-18.95-31.25-9.92-10.38-16.75-22.51-21.86-35.78-5.09-13.25-8.53-26.98-11.21-40.9-3.27-17.1-5.34-34.36-6.94-51.69-1.03-11.07-1.26-22.22-3.65-33.16-5.37-24.42-14.48-47-32.01-65.44-14.36-15.11-32.09-23.75-52.76-25.26-17.34-1.26-33.22,4.17-47.56,13.83-13.67,9.22-23.56,21.82-31.15,36.26-8.38,15.93-13.94,32.87-15.95,50.69-2.22,19.51-3.25,39.11-6.21,58.53-2.73,17.94-6.25,35.68-12.33,52.8-5.34,15.01-12.54,28.89-23.81,40.56-5.81,6-10.8,12.89-14.19,20.73-1.74,3.98-3.5,7.96-5.16,11.97,37.79,41.19,92.06,67.03,152.37,67.03s114.43-25.74,152.18-66.83c-.27-.69-.54-1.4-.8-2.08h-.01ZM270.36,235.21c-7,18.57-18.17,33.92-35.89,43.64-9.43,5.18-19.54,8.66-30.54,7.25-10.21-1.32-19.52-5.34-27.84-11.38-17.73-12.89-27.9-30.63-32.78-51.69-2.16-9.29-3.14-18.74-3.04-28.28.15-11.72,3.92-22.41,9.08-32.74,2.47-3.44,4.49-7.17,6.88-10.67,6.52-9.48,15.01-16.64,24.9-22.3,9.56-5.49,19.87-8.34,30.85-7.34,5.37.48,10.73,1.76,15.93,3.69,9.79,3.63,18.19,9.41,25.51,16.6,6,5.89,10.46,13.14,14.32,20.63.65,1.26,1.42,2.45,2.1,3.67,3.9,8.64,6.71,17.54,6.9,27.15.29,14.3-1.34,28.34-6.39,41.76h.01Z"/>
</svg>