<?xml version="1.0" encoding="UTF-8"?>
<svg id="Layer_1" data-name="Layer 1" xmlns="http://www.w3.org/2000/svg" viewBox="0 0 423.08 423.08">
  <defs>
    <style>
      .cls-1 {
        fill: #00a5c3;
      }

      .cls-2 {
        fill: #fff;
      }
    </style>
  </defs>
  <path class="cls-2" d="M418.29,211.54c0,53.98-20.67,103.09-54.58,139.92-37.75,41.09-91.96,66.83-152.18,66.83s-114.58-25.83-152.37-67.03C25.38,314.45,4.78,265.42,4.78,211.54,4.78,97.35,97.35,4.78,211.54,4.78s206.76,92.57,206.76,206.76h0Z"/>
  <path class="cls-2" d="M423.07,211.54c0,55.24-21.16,105.46-55.85,143.16-1.89,2.06-3.9,4.12-5.9,6.13-38.2,38.48-91.21,62.25-149.78,62.25s-111.86-24-150.23-62.64c-1.95-1.89-3.84-3.9-5.68-5.9C21.1,316.83,0,266.66,0,211.54,0,94.72,94.72,0,211.54,0s211.54,94.72,211.54,211.54h0Z"/>
  <path class="cls-1" d="M361.32,360.82c-38.2,38.48-91.21,62.25-149.78,62.25s-111.86-24-150.23-62.64c23.44-11.92,47.94-21.49,72.22-31.52,4.57-1.89,7.52-4.62,8.91-9.35,1.56-5.35,3.51-10.58,5.23-15.92,1.22-3.73,3.06-6.68,7.13-8.19,1.56-.56,3.29-2.84,3.51-4.51,1.23-8.35,2.17-16.7,2.67-25.06.11-2.28-1.17-5.07-2.67-6.96-6.63-8.24-10.25-17.65-12.64-27.95-2.28-9.74-6.18-19.21-8.69-28.95-1.73-6.51-2.34-13.36-3.4-20.05-.5-3.23.56-5.57,3.62-7.24,1.28-.67,2.28-2.45,2.78-3.9.56-1.73.56-3.62.56-5.46.11-15.31.67-30.68.17-46.05-.56-18.32,7.68-31.57,21.6-42.32,13.09-10.13,28.12-16.09,43.93-19.77,12.92-3.01,26.06-4.96,39.09-7.13,2.06-.33,4.68-1.06,6.29,1.89-1.84,1.45-3.68,2.73-5.35,4.29-4.34,3.84-4.51,6.68-.17,10.58,7.74,6.9,15.42,13.86,23.5,20.32,10.25,8.13,14.31,18.6,14.14,31.29-.17,16.59,0,33.13,0,49.72,0,3.9.17,7.41,4.18,9.74,1.11.61,1.73,3.17,1.61,4.79-.45,6.79-1,13.64-2,20.38-.45,3.23-1.89,6.4-3.01,9.52-2.45,6.74-5.18,13.36-7.41,20.16-2.39,7.29-4.9,14.37-8.85,21.1-2.73,4.62-3.84,10.47-4.45,15.92-.72,6.51-.17,13.14-.11,19.71,0,2.84,1.06,4.9,3.45,6.79,2,1.67,3.62,4.18,4.62,6.68,2.17,5.4,4.06,10.91,5.68,16.54,1.45,5.01,4.79,7.63,9.35,9.35,10.3,4.01,20.71,7.91,30.79,12.36,14.64,6.4,29.23,12.92,43.71,19.54l.02.05Z"/>
</svg>